<svg width="36" height="36" viewBox="0 0 36 36" fill="none" xmlns="http://www.w3.org/2000/svg">
<rect width="36" height="36" rx="18" fill="#E43F71" style="fill:#E43F71;fill:color(display-p3 0.8941 0.2471 0.4431);fill-opacity:1;"/>
<path d="M18 14.0078C20.4609 14.0078 22.4922 16.0391 22.4922 18.5C22.4922 21 20.4609 22.9922 18 22.9922C15.5 22.9922 13.5078 21 13.5078 18.5C13.5078 16.0391 15.5 14.0078 18 14.0078ZM18 21.4297C19.6016 21.4297 20.8906 20.1406 20.8906 18.5C20.8906 16.8984 19.6016 15.6094 18 15.6094C16.3594 15.6094 15.0703 16.8984 15.0703 18.5C15.0703 20.1406 16.3984 21.4297 18 21.4297ZM23.7031 13.8516C23.7031 14.4375 23.2344 14.9062 22.6484 14.9062C22.0625 14.9062 21.5938 14.4375 21.5938 13.8516C21.5938 13.2656 22.0625 12.7969 22.6484 12.7969C23.2344 12.7969 23.7031 13.2656 23.7031 13.8516ZM26.6719 14.9062C26.75 16.3516 26.75 20.6875 26.6719 22.1328C26.5938 23.5391 26.2812 24.75 25.2656 25.8047C24.25 26.8203 23 27.1328 21.5938 27.2109C20.1484 27.2891 15.8125 27.2891 14.3672 27.2109C12.9609 27.1328 11.75 26.8203 10.6953 25.8047C9.67969 24.75 9.36719 23.5391 9.28906 22.1328C9.21094 20.6875 9.21094 16.3516 9.28906 14.9062C9.36719 13.5 9.67969 12.25 10.6953 11.2344C11.75 10.2188 12.9609 9.90625 14.3672 9.82812C15.8125 9.75 20.1484 9.75 21.5938 9.82812C23 9.90625 24.25 10.2188 25.2656 11.2344C26.2812 12.25 26.5938 13.5 26.6719 14.9062ZM24.7969 23.6562C25.2656 22.5234 25.1484 19.7891 25.1484 18.5C25.1484 17.25 25.2656 14.5156 24.7969 13.3438C24.4844 12.6016 23.8984 11.9766 23.1562 11.7031C21.9844 11.2344 19.25 11.3516 18 11.3516C16.7109 11.3516 13.9766 11.2344 12.8438 11.7031C12.0625 12.0156 11.4766 12.6016 11.1641 13.3438C10.6953 14.5156 10.8125 17.25 10.8125 18.5C10.8125 19.7891 10.6953 22.5234 11.1641 23.6562C11.4766 24.4375 12.0625 25.0234 12.8438 25.3359C13.9766 25.8047 16.7109 25.6875 18 25.6875C19.25 25.6875 21.9844 25.8047 23.1562 25.3359C23.8984 25.0234 24.5234 24.4375 24.7969 23.6562Z" fill="white" style="fill:white;fill-opacity:1;"/>
</svg>
