<svg width="36" height="36" viewBox="0 0 36 36" fill="none" xmlns="http://www.w3.org/2000/svg">
<rect width="36" height="36" rx="18" fill="#E43F71" style="fill:#E43F71;fill:color(display-p3 0.8941 0.2471 0.4431);fill-opacity:1;"/>
<path d="M13.6406 25H10.3711V14.4883H13.6406V25ZM11.9883 13.082C10.9688 13.082 10.125 12.2031 10.125 11.1484C10.125 10.1289 10.9688 9.28516 11.9883 9.28516C13.043 9.28516 13.8867 10.1289 13.8867 11.1484C13.8867 12.2031 13.043 13.082 11.9883 13.082ZM25.8398 25H22.6055V19.9023C22.6055 18.6719 22.5703 17.125 20.8828 17.125C19.1953 17.125 18.9492 18.4258 18.9492 19.7969V25H15.6797V14.4883H18.8086V15.9297H18.8438C19.3008 15.1211 20.3555 14.2422 21.9375 14.2422C25.2422 14.2422 25.875 16.4219 25.875 19.2344V25H25.8398Z" fill="white" style="fill:white;fill-opacity:1;"/>
</svg>
