<svg width="40" height="40" viewBox="0 0 40 40" fill="none" xmlns="http://www.w3.org/2000/svg">
<path d="M35.6768 12.1659L31.9152 10.6885L31.6833 6.4909C31.6769 6.38391 31.6398 6.2822 31.5767 6.19884C31.5137 6.11549 31.4275 6.0543 31.3293 6.02314C31.2312 5.99199 31.1255 5.99229 31.0259 6.02402C30.9263 6.05574 30.8373 6.11743 30.7704 6.20116L28.1604 9.49688L24.253 8.5391C24.1521 8.51027 24.0443 8.51431 23.9439 8.5507C23.8436 8.58708 23.7555 8.65407 23.6915 8.74274C23.6274 8.83141 23.5904 8.93754 23.5853 9.04699C23.5803 9.15643 23.6074 9.26399 23.6632 9.35533L25.8101 12.8685L23.6162 16.473C23.5601 16.565 23.5314 16.6716 23.5338 16.7791C23.5362 16.8866 23.5697 16.99 23.6298 17.076C23.6899 17.162 23.774 17.2267 23.8711 17.2616C23.9682 17.2965 24.074 17.3001 24.1747 17.2719L28.1148 16.1468L30.6607 19.3072C30.7223 19.3965 30.8095 19.4631 30.9105 19.4978C31.0114 19.5325 31.121 19.5336 31.2243 19.5008C31.3276 19.4681 31.4194 19.4032 31.4871 19.3151C31.5548 19.227 31.5951 19.12 31.6024 19.0088L31.8885 14.7989L35.6688 13.1667C35.7658 13.1251 35.8492 13.0544 35.9083 12.9639C35.9674 12.8735 35.9994 12.7673 36.0001 12.6593C36.0008 12.5514 35.9702 12.4465 35.9123 12.3584C35.8544 12.2703 35.7733 12.2036 35.6768 12.1659Z" fill="#E64C7A"/>
<path d="M17.6553 21.4697C21.7652 21.4697 25.0966 24.8012 25.0967 28.9111V33.7451H4V28.9111C4.00005 24.8012 7.33182 21.4697 11.4414 21.4697H17.6553ZM13.5293 24.7021V26.5889H11.6436V28.626H13.5293V30.5117H15.5674V28.626H17.4531V26.5889H15.5674V24.7021H13.5293ZM14.5488 9.90723C17.6522 9.90723 20.168 12.423 20.168 15.5264C20.168 18.6297 17.6522 21.1455 14.5488 21.1455C11.4455 21.1454 8.92969 18.6297 8.92969 15.5264C8.92969 12.4231 11.4455 9.90731 14.5488 9.90723Z" fill="#E43F71"/>
</svg>
