<svg width="40" height="40" viewBox="0 0 40 40" fill="none" xmlns="http://www.w3.org/2000/svg">
<path d="M35.0562 33.8487H33.6108V9.44538C33.6108 9.10924 33.3419 8.84034 33.0058 8.84034H27.2915V4.60504C27.2915 4.26891 27.0226 4 26.6864 4H13.1066C12.7705 4 12.5016 4.26891 12.5016 4.60504V8.87395H6.78728C6.45114 8.87395 6.18224 9.14286 6.18224 9.47899V33.8824H4.73686C4.53518 33.8824 4.3335 34.0504 4.3335 34.2857V35.5966C4.3335 35.7983 4.50156 36 4.73686 36H35.0562C35.2579 36 35.4595 35.8319 35.4595 35.5966V34.2857C35.4595 34.0168 35.2915 33.8487 35.0562 33.8487ZM20.2999 33.8487V27.6303H23.6276C23.8293 27.6303 24.031 27.7983 24.031 28.0336V33.8487H20.2999ZM21.3419 25.042V22.7227C21.3419 22.521 21.51 22.3193 21.7453 22.3193H24.199C24.4007 22.3193 24.6024 22.4874 24.6024 22.7227V25.042C24.6024 25.2437 24.4343 25.4454 24.199 25.4454H21.7453C21.51 25.4454 21.3419 25.2773 21.3419 25.042ZM27.4595 12.1345C27.4595 11.9328 27.6276 11.7311 27.8629 11.7311H30.3167C30.5184 11.7311 30.7201 11.8992 30.7201 12.1345V14.4538C30.7201 14.6555 30.552 14.8571 30.3167 14.8571H27.8629C27.6612 14.8571 27.4595 14.6891 27.4595 14.4538V12.1345ZM27.4595 17.4454C27.4595 17.2437 27.6276 17.042 27.8629 17.042H30.3167C30.5184 17.042 30.7201 17.2101 30.7201 17.4454V19.7647C30.7201 19.9664 30.552 20.1681 30.3167 20.1681H27.8629C27.6612 20.1681 27.4595 20 27.4595 19.7647V17.4454ZM27.4595 22.7227C27.4595 22.521 27.6276 22.3193 27.8629 22.3193H30.3167C30.5184 22.3193 30.7201 22.4874 30.7201 22.7227V25.042C30.7201 25.2437 30.552 25.4454 30.3167 25.4454H27.8629C27.6612 25.4454 27.4595 25.2773 27.4595 25.042V22.7227ZM24.5688 17.4454V19.7647C24.5688 19.9664 24.4007 20.1681 24.1654 20.1681H21.7116C21.51 20.1681 21.3083 20 21.3083 19.7647V17.4454C21.3083 17.2437 21.4764 17.042 21.7116 17.042H24.1654C24.4007 17.042 24.5688 17.2101 24.5688 17.4454ZM19.8965 6.55462C22.0814 6.55462 23.8629 8.33613 23.8629 10.521C23.8629 12.7059 22.0814 14.4874 19.8965 14.4874C17.7116 14.4874 15.9301 12.7059 15.9301 10.521C15.9301 8.33613 17.7116 6.55462 19.8965 6.55462ZM15.2243 17.4454C15.2243 17.2437 15.3923 17.042 15.6276 17.042H18.0814C18.2831 17.042 18.4848 17.2101 18.4848 17.4454V19.7647C18.4848 19.9664 18.3167 20.1681 18.0814 20.1681H15.6276C15.4259 20.1681 15.2243 20 15.2243 19.7647V17.4454ZM15.2243 22.7227C15.2243 22.521 15.3923 22.3193 15.6276 22.3193H18.0814C18.2831 22.3193 18.4848 22.4874 18.4848 22.7227V25.042C18.4848 25.2437 18.3167 25.4454 18.0814 25.4454H15.6276C15.4259 25.4454 15.2243 25.2773 15.2243 25.042V22.7227ZM9.07299 12.1345C9.07299 11.9328 9.24106 11.7311 9.47635 11.7311H11.9301C12.1318 11.7311 12.3335 11.8992 12.3335 12.1345V14.4538C12.3335 14.6555 12.1654 14.8571 11.9301 14.8571H9.47635C9.27467 14.8571 9.07299 14.6891 9.07299 14.4538V12.1345ZM9.07299 17.4454C9.07299 17.2437 9.24106 17.042 9.47635 17.042H11.9301C12.1318 17.042 12.3335 17.2101 12.3335 17.4454V19.7647C12.3335 19.9664 12.1654 20.1681 11.9301 20.1681H9.47635C9.27467 20.1681 9.07299 20 9.07299 19.7647V17.4454ZM9.07299 22.7227C9.07299 22.521 9.24106 22.3193 9.47635 22.3193H11.9301C12.1318 22.3193 12.3335 22.4874 12.3335 22.7227V25.042C12.3335 25.2437 12.1654 25.4454 11.9301 25.4454H9.47635C9.27467 25.4454 9.07299 25.2773 9.07299 25.042V22.7227ZM15.7621 28.0336C15.7621 27.8319 15.9301 27.6303 16.1654 27.6303H19.4932V33.8487H15.7621V28.0336Z" fill="#E64C7A"/>
<path d="M19.2915 12.8403H20.5016C20.6024 12.8403 20.7032 12.7395 20.7032 12.6387V11.3277H22.0142C22.115 11.3277 22.2158 11.2269 22.2158 11.1261V9.91597C22.2158 9.81513 22.115 9.71429 22.0142 9.71429H20.7032V8.40336C20.7032 8.30252 20.6024 8.20168 20.5016 8.20168H19.2915C19.1906 8.20168 19.0898 8.30252 19.0898 8.40336V9.71429H17.7789C17.678 9.71429 17.5772 9.81513 17.5772 9.91597V11.1261C17.5772 11.2269 17.678 11.3277 17.7789 11.3277H19.0898V12.6387C19.0898 12.7395 19.1906 12.8403 19.2915 12.8403Z" fill="#E64C7A"/>
</svg>
