<svg width="40" height="40" viewBox="0 0 40 40" fill="none" xmlns="http://www.w3.org/2000/svg">
<path d="M29.6893 8.48H25.9167V7.30105C25.9167 6.69474 25.4451 6.22316 24.8388 6.22316H22.6493C22.2114 4.94316 20.9651 4 19.5167 4C18.0682 4 16.8556 4.94316 16.384 6.22316H14.1945C13.5882 6.22316 13.1167 6.69474 13.1167 7.30105V8.48H9.41139C8.80507 8.48 8.3335 8.95158 8.3335 9.55789V34.9221C8.3335 35.5284 8.80507 36 9.41139 36H29.723C30.3293 36 30.8009 35.5284 30.8009 34.9221V9.55789C30.7672 8.95158 30.2956 8.48 29.6893 8.48ZM15.3398 8.37895H17.3272C17.9335 8.37895 18.4051 7.90737 18.4051 7.30105C18.4051 6.66105 18.9103 6.15579 19.5503 6.15579C20.1903 6.15579 20.6956 6.66105 20.6956 7.30105C20.6956 7.90737 21.1672 8.37895 21.7735 8.37895H23.7609V10.6358H15.3398V8.37895ZM16.0472 18.72C15.8788 18.72 15.7777 18.5853 15.7777 18.4505V16.8337C15.7777 16.6653 15.9124 16.5642 16.0472 16.5642H18.4724V14.1389C18.4724 13.9705 18.6072 13.8695 18.7419 13.8695H20.3588C20.5272 13.8695 20.6282 14.0042 20.6282 14.1389V16.5642H23.0535C23.2219 16.5642 23.323 16.6989 23.323 16.8337V18.4505C23.323 18.6189 23.1882 18.72 23.0535 18.72H20.6282V21.1453C20.6282 21.3137 20.4935 21.4147 20.3588 21.4147H18.7419C18.5735 21.4147 18.4724 21.28 18.4724 21.1453V18.72H16.0472ZM26.2198 31.1158C26.2198 31.2842 26.0851 31.3853 25.9503 31.3853H13.1503C12.9819 31.3853 12.8809 31.2505 12.8809 31.1158V29.4989C12.8809 29.3305 13.0156 29.2295 13.1503 29.2295H25.9503C26.1188 29.2295 26.2198 29.3642 26.2198 29.4989V31.1158ZM26.2198 26.3663C26.2198 26.5347 26.0851 26.6358 25.9503 26.6358H13.1503C12.9819 26.6358 12.8809 26.5011 12.8809 26.3663V24.7495C12.8809 24.5811 13.0156 24.48 13.1503 24.48H25.9503C26.1188 24.48 26.2198 24.6147 26.2198 24.7495V26.3663Z" fill="#E64C7A"/>
</svg>
