<svg width="40" height="40" viewBox="0 0 40 40" fill="none" xmlns="http://www.w3.org/2000/svg">
<path fill-rule="evenodd" clip-rule="evenodd" d="M11.9087 30.668L13.3182 29.9213C14.0043 29.5457 14.8026 29.4294 15.5672 29.5938L18.9535 30.2737C19.2989 30.3474 19.6562 30.3452 20.0007 30.2673L26.2493 28.9445C26.5658 28.8813 26.8667 28.756 27.1344 28.5757L34.5629 23.7043C35.1636 23.3598 35.6374 22.831 35.9141 22.1962C36.0024 21.9685 36.0232 21.72 35.9738 21.4808C35.9312 21.2924 35.8277 21.1233 35.6794 20.9997C35.4948 20.8553 35.2689 20.7737 35.0347 20.7668L26.1533 26.0056C26.0998 26.037 26.0396 26.0554 25.9777 26.0593L19.3496 26.9212C19.2985 26.9277 19.2466 26.924 19.197 26.9104C19.1473 26.8968 19.1008 26.8735 19.0601 26.842C19.0195 26.8104 18.9854 26.7711 18.9599 26.7264C18.9344 26.6817 18.918 26.6324 18.9115 26.5813C18.9051 26.5302 18.9087 26.4783 18.9223 26.4287C18.9359 26.379 18.9592 26.3325 18.9907 26.2918C19.0223 26.2512 19.0616 26.2171 19.1063 26.1916C19.151 26.1661 19.2004 26.1496 19.2514 26.1432L25.8176 25.2898C26.2311 25.059 26.5834 24.7328 26.8453 24.3383C26.9476 24.1798 26.985 23.9881 26.9498 23.8027C26.8889 23.6067 26.7637 23.4369 26.5942 23.3209C26.0965 22.9867 25.5272 22.7741 24.9322 22.7004L17.0902 22.7381C17.042 22.7404 16.9937 22.7337 16.948 22.7182C12.1615 21.1039 12.0694 21.1657 9.55185 22.8587C9.1191 23.1495 8.61738 23.4866 7.99404 23.8828L11.9087 30.668ZM24.9888 9.14917H15.0147C14.5617 9.15086 14.1278 9.33157 13.8075 9.6519C13.4872 9.97223 13.3066 10.4062 13.305 10.8592V17.638C13.3066 18.091 13.4872 18.5249 13.8075 18.8453C14.1278 19.1656 14.5617 19.3463 15.0147 19.348H24.9888C25.4417 19.3463 25.8757 19.1656 26.1959 18.8453C26.5162 18.5249 26.6968 18.091 26.6984 17.638V10.8592C26.6968 10.4062 26.5162 9.97223 26.1959 9.6519C25.8757 9.33157 25.4417 9.15086 24.9888 9.14917ZM22.0997 8.36226V7.479C22.0992 7.41841 22.0749 7.36043 22.0321 7.31759C21.9892 7.27474 21.9313 7.25047 21.8707 7.25H18.137C18.0765 7.25056 18.0186 7.27487 17.9759 7.31771C17.9331 7.36054 17.9089 7.41847 17.9084 7.479V8.36226H22.0997ZM19.0772 13.7163C19.1812 13.7156 19.2807 13.6739 19.3539 13.6001C19.4272 13.5264 19.4684 13.4266 19.4684 13.3226V12.0329H20.5351V13.3226C20.5351 13.4266 20.5762 13.5264 20.6495 13.6001C20.7228 13.6739 20.8223 13.7156 20.9262 13.7163H22.2159V14.7809H20.9262C20.8223 14.7816 20.7228 14.8233 20.6495 14.8971C20.5762 14.9708 20.5351 15.0706 20.5351 15.1745V16.4646H19.4684V15.1745C19.4684 15.0706 19.4272 14.9708 19.3539 14.8971C19.2807 14.8233 19.1812 14.7816 19.0772 14.7809H17.7861V13.7163H19.0772ZM17.492 12.9294H18.6825V11.7375C18.6826 11.6072 18.7344 11.4822 18.8265 11.3901C18.9187 11.2979 19.0436 11.2461 19.1739 11.246H20.8295C20.9599 11.2461 21.0848 11.2979 21.177 11.3901C21.2692 11.4822 21.3211 11.6071 21.3213 11.7375V12.9294H22.5129C22.6432 12.9295 22.7681 12.9813 22.8602 13.0734C22.9524 13.1655 23.0042 13.2905 23.0043 13.4208V15.0778C23.0042 15.2081 22.9524 15.333 22.8602 15.4252C22.7681 15.5173 22.6432 15.5691 22.5129 15.5692H21.3213V16.7597C21.3211 16.8901 21.2692 17.015 21.177 17.1071C21.0848 17.1992 20.9599 17.251 20.8295 17.2511H19.1739C19.0436 17.251 18.9187 17.1992 18.8265 17.1071C18.7344 17.015 18.6826 16.89 18.6825 16.7597V15.5678H17.4906C17.3605 15.5677 17.2358 15.5161 17.1437 15.4243C17.0516 15.3324 16.9997 15.2079 16.9992 15.0778V13.4208C16.9993 13.2905 17.0511 13.1655 17.1432 13.0734C17.2354 12.9813 17.3603 12.9295 17.4906 12.9294H17.492ZM11.4389 31.4197L11.7053 31.882C11.7287 31.9235 11.7347 31.9726 11.722 32.0185C11.7163 32.0414 11.7061 32.0629 11.692 32.0819C11.6779 32.1008 11.6602 32.1167 11.6398 32.1287L9.17671 33.5511L9.16604 33.5575C9.12655 33.5759 9.08176 33.5796 9.03981 33.5678C9.01685 33.5619 8.9953 33.5514 8.97643 33.5371C8.95756 33.5227 8.94175 33.5048 8.92993 33.4842C8.926 33.4774 8.92173 33.4707 8.91713 33.4643L4.02289 24.9915C3.99998 24.9498 3.99399 24.9009 4.00618 24.855C4.01836 24.809 4.04777 24.7695 4.08831 24.7447L6.55144 23.3224C6.5931 23.2994 6.64198 23.2935 6.68793 23.3056C6.73388 23.3178 6.77338 23.3472 6.79821 23.3878L11.4027 31.3589C11.4055 31.3649 11.4087 31.3713 11.4119 31.3774C11.4196 31.3917 11.4281 31.4056 11.4375 31.419L11.4389 31.4197Z" fill="#E64C7A"/>
</svg>
