<svg width="40" height="40" viewBox="0 0 40 40" fill="none" xmlns="http://www.w3.org/2000/svg">
<path fill-rule="evenodd" clip-rule="evenodd" d="M8.67132 17.0067L8.58649 13.7262C9.06636 13.7946 9.50062 14.0111 9.8349 14.3327C10.2565 14.7315 10.5249 15.295 10.5414 15.9204L10.5933 18.0374L10.2299 17.7094C9.79566 17.3081 9.24233 17.0713 8.67132 17.0067ZM8.8663 31.4139L16.363 31.4037L16.2529 27.0355C16.2111 25.3338 15.5464 23.8853 14.2828 22.7447C12.7077 21.319 11.1289 19.8896 9.55379 18.4626C9.03214 17.9891 8.29906 17.8916 7.68374 18.1486C7.45331 18.2461 7.23933 18.3917 7.0608 18.5892C6.40875 19.3084 6.46826 20.4302 7.18741 21.0822L10.6818 24.2463C10.8895 24.4337 10.9059 24.7578 10.7173 24.9654C10.5299 25.1731 10.2058 25.1895 9.99811 25.0009L6.4998 21.8331C5.36535 20.805 5.278 19.0387 6.30228 17.9043C6.67451 17.4891 7.14806 17.2168 7.65451 17.0839L7.5317 12.1118C7.50637 11.1394 6.69227 10.3683 5.72368 10.3911C4.75256 10.4177 3.9777 11.2305 4.00049 12.2004L4.2955 23.8855C4.32842 25.12 4.807 26.1671 5.72114 26.9938L7.45191 28.5587C8.30148 29.3273 8.77512 30.2895 8.8663 31.4139ZM17.8151 32.423L7.48876 32.4331C7.23553 32.4331 7.02788 32.6407 7.02788 32.894L7.03168 35.5389C7.03168 35.7921 7.23933 35.9998 7.49256 35.9998L17.8189 35.9897C18.0722 35.9897 18.2798 35.782 18.2798 35.5288L18.276 32.8838C18.2747 32.6268 18.0671 32.423 17.8151 32.423ZM30.4461 17.0068L30.5309 13.7263C30.051 13.7947 29.6205 14.0112 29.2825 14.3328C28.8608 14.7316 28.5924 15.2951 28.576 15.9205L28.5241 18.0374L28.8874 17.7095C29.3243 17.3082 29.875 17.0714 30.4461 17.0068ZM33.3961 10.3914C32.4275 10.3686 31.6096 11.1397 31.5881 12.112L31.4615 17.0842C31.9667 17.2171 32.4377 17.4893 32.8137 17.9046C33.8418 19.039 33.7532 20.8091 32.6162 21.8333L29.1205 24.9974C28.9129 25.1848 28.5887 25.1696 28.4013 24.9619C28.2139 24.7543 28.2291 24.4302 28.4368 24.2427L31.9338 21.0787C32.653 20.4267 32.7086 19.3061 32.0566 18.5857C31.8781 18.3882 31.6641 18.2426 31.4337 18.1451C30.8209 17.8893 30.0852 17.9894 29.5636 18.4591C27.9885 19.8847 26.4097 21.3142 24.8346 22.7411C23.571 23.8819 22.9088 25.3304 22.867 27.0319L22.7569 31.4012L30.2549 31.4138C30.3423 30.2895 30.8158 29.326 31.6679 28.5587L33.3949 26.9938C34.309 26.167 34.7914 25.1174 34.8206 23.8855L35.1168 12.2004C35.1396 11.2305 34.3685 10.418 33.3961 10.3914ZM31.6324 32.432L21.306 32.4219C21.0528 32.4219 20.8452 32.6296 20.8452 32.8828L20.8414 35.5277C20.8414 35.781 21.049 35.9886 21.3022 35.9886L31.6286 35.9987C31.8818 35.9987 32.0895 35.7911 32.0895 35.5379L32.0933 32.8929C32.0933 32.6397 31.8857 32.432 31.6324 32.432Z" fill="#E64C7A"/>
<path d="M18.4658 20.2738C17.6647 20.2092 17.0121 20.0735 16.5081 19.8668C16.0171 19.6471 15.6359 19.3628 15.3645 19.0139C15.0932 18.6521 14.9058 18.2451 14.8024 17.7928C14.712 17.3405 14.6667 16.8624 14.6667 16.3584V15.9514H17.3416C17.3416 16.2228 17.3481 16.4877 17.361 16.7461C17.3868 16.9916 17.4385 17.2178 17.5161 17.4245C17.5936 17.6313 17.7034 17.8122 17.8456 17.9672C18.0006 18.1094 18.2074 18.2128 18.4658 18.2774V14.362L17.4967 14.0131C16.5534 13.6771 15.875 13.199 15.4615 12.5788C15.0479 11.9456 14.8412 11.1832 14.8412 10.2916C14.8412 9.08982 15.1513 8.16589 15.7716 7.51979C16.4048 6.86077 17.3028 6.46665 18.4658 6.33743V5H19.7063V6.33743C20.43 6.40204 21.0179 6.55064 21.4702 6.78324C21.9354 7.00291 22.3037 7.28073 22.575 7.61671C22.8464 7.95268 23.0338 8.32742 23.1371 8.74092C23.2405 9.15443 23.2922 9.57439 23.2922 10.0008V10.2722H20.6173C20.6044 9.78114 20.5333 9.3741 20.4041 9.05105C20.2749 8.71508 20.0423 8.4954 19.7063 8.39203V12.0554L21.2376 12.6757C21.5994 12.8307 21.9225 12.9987 22.2067 13.1796C22.5039 13.3605 22.7559 13.5867 22.9627 13.858C23.1694 14.1165 23.331 14.4331 23.4473 14.8078C23.5636 15.1825 23.6217 15.6413 23.6217 16.184C23.6217 17.5796 23.2857 18.5875 22.6138 19.2078C21.9548 19.828 20.9856 20.1834 19.7063 20.2738V21.9601H18.4658V20.2738ZM18.4658 8.39203C17.8326 8.57294 17.5161 9.06397 17.5161 9.86514C17.5161 10.5888 17.8326 11.1315 18.4658 11.4933V8.39203ZM19.7063 18.2774C20.1069 18.1869 20.3912 17.9995 20.5592 17.7153C20.7401 17.4181 20.8305 17.0885 20.8305 16.7267C20.8305 16.2357 20.7336 15.848 20.5398 15.5637C20.3589 15.2795 20.0811 15.0404 19.7063 14.8466V18.2774Z" fill="#E64C7A"/>
</svg>
