<svg width="40" height="40" viewBox="0 0 40 40" fill="none" xmlns="http://www.w3.org/2000/svg">
<path d="M31.8591 16.3232C32.1591 16.2532 32.4739 16.2735 32.7625 16.3828C33.0606 16.4597 33.3294 16.6241 33.5339 16.8535C33.7383 17.0829 33.869 17.3675 33.9099 17.6709C33.9238 17.7867 33.9164 17.904 33.8865 18.0166L32.5808 22.1494L34.0535 22.6143C34.2876 22.6804 34.5031 22.7999 34.6833 22.9629C34.8637 23.1259 35.004 23.3281 35.0925 23.5537C35.1614 23.7497 35.1647 23.9626 35.1023 24.1602C35.0398 24.3578 34.9148 24.5305 34.7458 24.6514L30.5115 27.7373C30.3088 27.8718 30.0768 27.957 29.8347 27.9873C29.5927 28.0175 29.3466 27.9914 29.116 27.9111C28.8824 27.8442 28.6671 27.7252 28.4871 27.5625C28.3068 27.3995 28.1662 27.1969 28.0769 26.9717L26.4109 21.9932C26.3421 21.7972 26.3387 21.5843 26.4011 21.3867C26.4636 21.1893 26.5887 21.0173 26.7576 20.8965C26.9595 20.7624 27.1902 20.6773 27.4314 20.6475C27.6727 20.6176 27.9185 20.6439 28.1482 20.7246L29.6199 21.1895L30.9187 17.0801C30.9527 16.9699 31.0077 16.8665 31.0798 16.7764C31.288 16.5511 31.5593 16.3933 31.8591 16.3232ZM21.7625 4.68164C21.8819 4.04592 22.6478 3.79401 23.1648 4.18945L30.4744 9.80469C31.0117 10.2187 30.9476 11.1924 30.3162 11.4443L21.6082 14.915C20.9649 15.1714 20.2434 14.4968 20.3718 13.8174L21.7625 4.68164ZM25.78 11.1533C25.6558 10.8422 25.302 10.689 24.9919 10.8125C24.6818 10.9361 24.5299 11.2911 24.6541 11.6025C24.7782 11.9138 25.132 12.0668 25.4421 11.9434C25.7523 11.8197 25.9041 11.4648 25.78 11.1533ZM24.0359 6.67578C23.9118 6.36444 23.5462 6.21633 23.2361 6.33984C22.9259 6.46344 22.7625 6.82238 22.8865 7.13379L24.0632 10.0869C24.1874 10.3983 24.5529 10.5464 24.863 10.4229C25.1732 10.2993 25.3367 9.94032 25.2126 9.62891L24.0359 6.67578Z" fill="#E64C7A"/>
<path d="M12.8001 35.3998L13.6251 35.8502C13.7752 36.0004 13.8502 36.0004 14.0002 36.0004C14.1502 36.0004 14.2252 36.0004 14.3752 35.9253L15.2002 35.4749C19.7003 32.8475 23.0003 30.9708 23.0003 24.8152V18.7346C23.0003 18.4344 22.7753 18.1341 22.4753 18.059L14.2252 15.0563C14.0752 14.9812 13.8502 14.9812 13.7002 15.0563L5.45001 18.059C5.225 18.1341 5 18.4344 5 18.7346V24.7401C5 30.9708 8.30006 32.8475 12.8001 35.3998ZM11.0001 24.8903H13.2501V22.6382C13.2501 22.2629 13.6251 21.8875 14.0002 21.8875C14.3752 21.8875 14.7502 22.2629 14.7502 22.6382V24.8903H17.0002C17.3752 24.8903 17.7502 25.2656 17.7502 25.6409C17.7502 26.0163 17.3752 26.3916 17.0002 26.3916H14.7502V28.6437C14.7502 29.019 14.3752 29.3944 14.0002 29.3944C13.6251 29.3944 13.2501 29.019 13.2501 28.6437V26.3916H11.0001C10.6251 26.3916 10.2501 26.0163 10.2501 25.6409C10.2501 25.2656 10.6251 24.8903 11.0001 24.8903Z" fill="#E64C7A"/>
</svg>
