<svg width="16" height="16" viewBox="0 0 16 16" fill="none" xmlns="http://www.w3.org/2000/svg">
<path d="M2.23046 7.49207H1.47308C1.10157 7.49207 0.799194 7.79444 0.799194 8.16595V13.0587C0.799194 13.4302 1.10157 13.7326 1.47308 13.7326H2.23046C2.60195 13.7326 2.90433 13.4302 2.90433 13.0587V8.16595C2.90433 7.79444 2.60195 7.49207 2.23046 7.49207Z" fill="#E43F71"/>
<path d="M14.8138 9.73252C14.569 9.54822 14.2609 9.49061 13.9671 9.57411L11.1737 10.3747C10.9865 10.8873 10.497 11.2588 9.92102 11.2588H6.59772C6.43933 11.2588 6.30973 11.1292 6.30973 10.9708C6.30973 10.8124 6.43933 10.6828 6.59772 10.6828H9.92965C10.4682 10.6742 10.7418 10.0291 10.4221 9.59427C10.2148 9.30918 9.8807 9.12488 9.50056 9.12488H8.60207C8.27665 9.12488 7.957 8.99815 7.70067 8.77065C7.43287 8.53451 6.98649 8.19182 6.3558 7.90383C5.42852 7.48051 4.13261 7.85487 3.47888 8.09679C3.48176 8.11983 3.48176 8.14286 3.48176 8.1659V12.9233C4.63945 13.1163 8.38897 13.7326 9.57255 13.7326C10.7475 13.7326 13.5352 12.0767 14.713 11.3423C14.9549 11.1926 15.1392 10.9535 15.1853 10.6742C15.2486 10.3056 15.1047 9.95138 14.8138 9.73252Z" fill="#E43F71"/>
<path d="M7.47736 5.0932C7.47736 7.01978 9.04395 8.5835 10.9677 8.5835C12.8943 8.5835 14.4609 7.01978 14.4609 5.0932C14.4609 3.16662 12.8943 1.59998 10.9677 1.59998C9.04395 1.59998 7.47736 3.16662 7.47736 5.0932ZM11.2568 3.24169V3.40979C11.7452 3.52297 12.1084 3.91174 12.1084 4.37703C12.1084 4.53619 11.9796 4.66502 11.8204 4.66502C11.6612 4.66502 11.5324 4.53619 11.5324 4.37703C11.5324 4.1453 11.2743 3.94926 10.9688 3.94926C10.6634 3.94926 10.4052 4.1453 10.4052 4.37703C10.4052 4.6051 10.7503 4.74036 11.0397 4.81377C11.7487 4.99349 12.1084 5.32815 12.1084 5.80878C12.1084 6.27406 11.7452 6.66281 11.2568 6.77599V6.94409C11.2568 7.10328 11.128 7.23208 10.9688 7.23208C10.8097 7.23208 10.6808 7.10328 10.6808 6.94409V6.77599C10.1924 6.66281 9.82929 6.27406 9.82929 5.80878C9.82929 5.64959 9.95811 5.52079 10.1173 5.52079C10.2765 5.52079 10.4052 5.64959 10.4052 5.80878C10.4052 6.04051 10.6634 6.23652 10.9688 6.23652C11.2743 6.23652 11.5324 6.04051 11.5324 5.80878C11.5324 5.74042 11.5324 5.53289 10.8982 5.37231C10.0146 5.14816 9.82929 4.70746 9.82929 4.37703C9.82929 3.91174 10.1924 3.52297 10.6808 3.40979V3.24169C10.6808 3.08253 10.8097 2.9537 10.9688 2.9537C11.128 2.9537 11.2568 3.08253 11.2568 3.24169Z" fill="#E43F71"/>
</svg>
