<svg width="16" height="16" viewBox="0 0 16 16" fill="none" xmlns="http://www.w3.org/2000/svg">
<path d="M9.8504 7.7854C12.3331 7.78555 14.3455 9.7978 14.3455 12.2805V15.2004H1.6004V12.2805C1.6004 9.79785 3.6131 7.78563 6.09552 7.7854H9.8504ZM7.35724 9.73755V10.8772H6.21857V12.1077H7.35724V13.2473H8.58868V12.1077H9.72736V10.8772H8.58868V9.73755H7.35724ZM7.9715 0.800049C9.84623 0.800049 11.366 2.31984 11.366 4.19458C11.366 6.06931 9.84623 7.58911 7.9715 7.58911C6.09694 7.58891 4.57698 6.06918 4.57697 4.19458C4.57697 2.31997 6.09693 0.800248 7.9715 0.800049Z" fill="#E43F71"/>
</svg>
