<svg width="16" height="16" viewBox="0 0 16 16" fill="none" xmlns="http://www.w3.org/2000/svg">
<path fill-rule="evenodd" clip-rule="evenodd" d="M13.9269 5.72932V14.6226C13.9269 14.9407 13.6676 15.2 13.3495 15.2H2.97709C2.65896 15.2 2.39966 14.9407 2.39966 14.6226V5.72932C2.39966 5.71996 2.403 5.71261 2.41035 5.70659L8.14395 0.807066C8.15531 0.79771 8.17135 0.79771 8.18271 0.807066L13.9163 5.70659C13.9237 5.71261 13.9269 5.72063 13.9269 5.72932ZM8.1633 4.98613C5.70524 4.98613 3.71288 6.97848 3.71288 9.43655C3.71288 11.8946 5.70524 13.887 8.1633 13.887C10.6214 13.887 12.6137 11.8946 12.6137 9.43655C12.6137 6.97848 10.6214 4.98613 8.1633 4.98613Z" fill="#E43F71"/>
<path fill-rule="evenodd" clip-rule="evenodd" d="M7.70882 6.62756C7.51301 6.62756 7.35261 6.78729 7.35261 6.98377V8.47079C7.35261 8.4875 7.33925 8.50087 7.32254 8.50087H5.83552C5.63971 8.50087 5.47931 8.6606 5.47931 8.85708V10.018C5.47931 10.2138 5.63904 10.3742 5.83552 10.3742H7.32254C7.33925 10.3742 7.35261 10.3875 7.35261 10.4042V11.8913C7.35261 12.0871 7.51234 12.2475 7.70882 12.2475H8.86971C9.06552 12.2475 9.22592 12.0878 9.22592 11.8913V10.4042C9.22592 10.3875 9.23929 10.3742 9.256 10.3742H10.743C10.9388 10.3742 11.0992 10.2144 11.0992 10.018V8.85708C11.0992 8.66126 10.9395 8.50087 10.743 8.50087H9.256C9.23929 8.50087 9.22592 8.4875 9.22592 8.47079V6.98377C9.22592 6.78796 9.06619 6.62756 8.86971 6.62756H7.70882Z" fill="#E43F71"/>
</svg>
