<svg width="16" height="16" viewBox="0 0 16 16" fill="none" xmlns="http://www.w3.org/2000/svg">
<path d="M12.8101 2.81605H11.1124V2.28552C11.1124 2.01268 10.9002 1.80047 10.6274 1.80047H9.64212C9.44507 1.22447 8.88422 0.800049 8.23243 0.800049C7.58064 0.800049 7.03496 1.22447 6.82275 1.80047H5.83749C5.56464 1.80047 5.35243 2.01268 5.35243 2.28552V2.81605H3.68506C3.41222 2.81605 3.20001 3.02826 3.20001 3.3011V14.715C3.20001 14.9878 3.41222 15.2 3.68506 15.2H12.8253C13.0981 15.2 13.3103 14.9878 13.3103 14.715V3.3011C13.2952 3.02826 13.083 2.81605 12.8101 2.81605ZM6.35285 2.77058H7.24717C7.52001 2.77058 7.73222 2.55836 7.73222 2.28552C7.73222 1.99752 7.95959 1.77015 8.24759 1.77015C8.53559 1.77015 8.76296 1.99752 8.76296 2.28552C8.76296 2.55836 8.97517 2.77058 9.24801 2.77058H10.1423V3.78615H6.35285V2.77058ZM6.67117 7.42405C6.59538 7.42405 6.54991 7.36342 6.54991 7.30279V6.57521C6.54991 6.49942 6.61054 6.45394 6.67117 6.45394H7.76254V5.36258C7.76254 5.28679 7.82317 5.24131 7.8838 5.24131H8.61138C8.68717 5.24131 8.73264 5.30194 8.73264 5.36258V6.45394H9.82401C9.8998 6.45394 9.94528 6.51458 9.94528 6.57521V7.30279C9.94528 7.37858 9.88464 7.42405 9.82401 7.42405H8.73264V8.51542C8.73264 8.59121 8.67201 8.63668 8.61138 8.63668H7.8838C7.80801 8.63668 7.76254 8.57605 7.76254 8.51542V7.42405H6.67117ZM11.2489 13.0022C11.2489 13.0779 11.1882 13.1234 11.1276 13.1234H5.36759C5.2918 13.1234 5.24633 13.0628 5.24633 13.0022V12.2746C5.24633 12.1988 5.30696 12.1533 5.36759 12.1533H11.1276C11.2034 12.1533 11.2489 12.2139 11.2489 12.2746V13.0022ZM11.2489 10.8649C11.2489 10.9407 11.1882 10.9862 11.1276 10.9862H5.36759C5.2918 10.9862 5.24633 10.9255 5.24633 10.8649V10.1373C5.24633 10.0615 5.30696 10.016 5.36759 10.016H11.1276C11.2034 10.016 11.2489 10.0767 11.2489 10.1373V10.8649Z" fill="#E43F71"/>
</svg>
