<svg width="20" height="20" viewBox="0 0 20 20" fill="none" xmlns="http://www.w3.org/2000/svg">
<path fill-rule="evenodd" clip-rule="evenodd" d="M8.03653 2.34383C9.49139 2.05444 11.0001 2.20293 12.3705 2.77059C13.7407 3.33819 14.9117 4.29925 15.7357 5.53231C16.5598 6.76562 17.0004 8.21601 17.0004 9.6993C16.998 11.6876 16.207 13.5941 14.8012 15.0001C13.3952 16.406 11.4887 17.1968 9.5004 17.1993C8.01707 17.1993 6.56675 16.7597 5.3334 15.9356C4.10004 15.1115 3.13837 13.9399 2.57071 12.5694C2.00317 11.1991 1.85462 9.69112 2.14395 8.23641C2.43332 6.78166 3.14792 5.44542 4.19668 4.39656C5.24548 3.34777 6.58184 2.63327 8.03653 2.34383ZM13.7035 6.78426C13.4829 6.77473 13.2668 6.85287 13.1039 7.00203L8.69278 11.046L6.75723 9.11043C6.60098 8.95406 6.38845 8.86637 6.16739 8.86629C5.94637 8.86624 5.73389 8.95322 5.57754 9.10946C5.42118 9.26571 5.33348 9.47825 5.3334 9.6993C5.33335 9.92032 5.42131 10.1328 5.57754 10.2891L8.07754 12.7891C8.22938 12.9409 8.4342 13.0276 8.64883 13.0323C8.86353 13.037 9.07159 12.9587 9.22989 12.8136L14.2299 8.23055C14.3105 8.15658 14.3761 8.06707 14.4223 7.96785C14.4684 7.86877 14.4947 7.76161 14.4994 7.65242C14.5041 7.54318 14.487 7.43388 14.4496 7.33113C14.4121 7.22831 14.3547 7.13346 14.2807 7.05281C14.1314 6.89035 13.9239 6.79389 13.7035 6.78426Z" fill="#A062D0" style="fill:#A062D0;fill:color(display-p3 0.6275 0.3843 0.8157);fill-opacity:1;"/>
</svg>
