<svg width="24" height="24" viewBox="0 0 24 24" fill="none" xmlns="http://www.w3.org/2000/svg">
<path d="M6.4096 7.92167H9.32756C9.57879 7.92167 9.75096 8.1729 9.67253 8.40819L8.63699 11.5927C8.55855 11.828 8.74667 12.0792 8.9979 12.0792L11.8054 12.0167C12.1191 12.0167 12.3073 12.3776 12.1032 12.6129L7.03639 18.8714C6.78516 19.1851 6.28332 18.9186 6.393 18.5417L7.42855 14.8395C7.49105 14.6042 7.31886 14.3689 7.06764 14.3689H4.36975C4.11852 14.3689 3.93041 14.1176 4.02478 13.8824L6.048 8.17286C6.09518 8.03193 6.23611 7.92163 6.39297 7.92163L6.4096 7.92167Z" fill="#E43F71" style="fill:#E43F71;fill:color(display-p3 0.8941 0.2471 0.4431);fill-opacity:1;"/>
<path d="M16.0784 4C15.3028 4 14.5446 4.23 13.8997 4.6609C13.2548 5.09181 12.7522 5.70428 12.4554 6.42085C12.1586 7.13742 12.0809 7.92592 12.2322 8.68663C12.3835 9.44734 12.757 10.1461 13.3055 10.6945C13.8539 11.243 14.5527 11.6165 15.3134 11.7678C16.0741 11.9191 16.8626 11.8414 17.5791 11.5446C18.2957 11.2478 18.9082 10.7452 19.3391 10.1003C19.77 9.45538 20 8.69718 20 7.92157C20 7.40658 19.8986 6.89664 19.7015 6.42085C19.5044 5.94506 19.2155 5.51275 18.8514 5.1486C18.4872 4.78445 18.0549 4.49559 17.5791 4.29851C17.1034 4.10143 16.5934 4 16.0784 4ZM18.3043 7.2302L15.9514 9.38706C15.8769 9.45537 15.7789 9.49228 15.6778 9.49008C15.5768 9.48789 15.4805 9.44677 15.409 9.37529L14.2325 8.19882C14.1951 8.16265 14.1652 8.11938 14.1447 8.07153C14.1241 8.02369 14.1133 7.97223 14.1128 7.92016C14.1124 7.86809 14.1223 7.81645 14.142 7.76825C14.1617 7.72006 14.1909 7.67627 14.2277 7.63945C14.2645 7.60263 14.3083 7.57351 14.3565 7.5538C14.4047 7.53408 14.4563 7.52415 14.5084 7.52461C14.5605 7.52506 14.6119 7.53588 14.6598 7.55643C14.7076 7.57698 14.7509 7.60686 14.7871 7.64431L15.698 8.55529L17.7741 6.65216C17.8508 6.58185 17.9522 6.54487 18.0561 6.54936C18.16 6.55384 18.2579 6.59943 18.3282 6.67608C18.3985 6.75273 18.4355 6.85417 18.431 6.95809C18.4265 7.06201 18.381 7.15989 18.3043 7.2302Z" fill="#E43F71" style="fill:#E43F71;fill:color(display-p3 0.8941 0.2471 0.4431);fill-opacity:1;"/>
</svg>
