<svg width="24" height="24" viewBox="0 0 24 24" fill="none" xmlns="http://www.w3.org/2000/svg">
<path fill-rule="evenodd" clip-rule="evenodd" d="M7.57823 10.8466C6.67293 10.8463 5.78788 11.1145 5.03501 11.6172C4.28215 12.12 3.69531 12.8347 3.34871 13.6711C3.00211 14.5074 2.91133 15.4277 3.08784 16.3156C3.26436 17.2036 3.70024 18.0192 4.34036 18.6594C4.98048 19.2995 5.79607 19.7355 6.68399 19.9121C7.5719 20.0887 8.49224 19.998 9.32859 19.6514C10.1649 19.3049 10.8797 18.7181 11.3826 17.9653C11.8854 17.2125 12.1537 16.3274 12.1534 15.4221C12.1518 14.2092 11.6692 13.0464 10.8116 12.1887C9.95395 11.331 8.79118 10.8483 7.57823 10.8466ZM7.57823 15.2297C7.86348 15.2299 8.1383 15.3371 8.34836 15.53C8.55843 15.723 8.68845 15.9878 8.71275 16.272C8.73704 16.5562 8.65383 16.8392 8.47957 17.065C8.3053 17.2908 8.05266 17.4431 7.77158 17.4916V17.9753C7.77001 18.0255 7.74896 18.0731 7.71289 18.1081C7.67682 18.143 7.62856 18.1626 7.57833 18.1626C7.5281 18.1626 7.47984 18.143 7.44377 18.1081C7.4077 18.0731 7.38665 18.0255 7.38508 17.9753V17.4907C7.12029 17.445 6.8801 17.3074 6.70682 17.1021C6.53354 16.8967 6.43829 16.6368 6.43783 16.3681C6.43702 16.3422 6.44142 16.3164 6.45077 16.2922C6.46012 16.2681 6.47422 16.2461 6.49225 16.2275C6.51027 16.2089 6.53185 16.1941 6.5557 16.184C6.57955 16.1739 6.60518 16.1687 6.63108 16.1687C6.65698 16.1687 6.68262 16.1739 6.70646 16.184C6.73031 16.1941 6.75189 16.2089 6.76992 16.2275C6.78794 16.2461 6.80205 16.2681 6.81139 16.2922C6.82074 16.3164 6.82514 16.3422 6.82433 16.3681C6.82429 16.517 6.8684 16.6625 6.95107 16.7863C7.03374 16.9102 7.15127 17.0067 7.2888 17.0638C7.42632 17.1208 7.57767 17.1358 7.72372 17.1068C7.86977 17.0779 8.00395 17.0063 8.10931 16.9011C8.21467 16.7959 8.28648 16.6618 8.31565 16.5158C8.34483 16.3698 8.33006 16.2184 8.27322 16.0808C8.21638 15.9432 8.12002 15.8255 7.99632 15.7427C7.87261 15.6598 7.72712 15.6155 7.57823 15.6153C7.29292 15.6152 7.01804 15.508 6.80796 15.315C6.59787 15.1219 6.46788 14.8571 6.4437 14.5728C6.41952 14.2885 6.5029 14.0055 6.67736 13.7797C6.85182 13.554 7.10464 13.4019 7.38584 13.3536V12.8699C7.38503 12.8441 7.38943 12.8183 7.39877 12.7941C7.40812 12.77 7.42222 12.7479 7.44025 12.7293C7.45827 12.7107 7.47985 12.696 7.5037 12.6859C7.52755 12.6758 7.55319 12.6706 7.57908 12.6706C7.60498 12.6706 7.63062 12.6758 7.65447 12.6859C7.67832 12.696 7.69989 12.7107 7.71792 12.7293C7.73594 12.7479 7.75005 12.77 7.7594 12.7941C7.76874 12.8183 7.77314 12.8441 7.77233 12.8699V13.3536C8.03671 13.3997 8.27637 13.5376 8.44919 13.7429C8.62202 13.9482 8.71695 14.2078 8.71731 14.4762C8.71731 14.5275 8.69694 14.5767 8.66068 14.6129C8.62442 14.6492 8.57525 14.6696 8.52397 14.6696C8.47269 14.6696 8.42351 14.6492 8.38725 14.6129C8.351 14.5767 8.33063 14.5275 8.33063 14.4762C8.3307 14.3272 8.28657 14.1816 8.20383 14.0577C8.12109 13.9338 8.00346 13.8372 7.86581 13.7802C7.72817 13.7232 7.5767 13.7083 7.43059 13.7374C7.28447 13.7665 7.15027 13.8383 7.04498 13.9437C6.93968 14.0491 6.86802 14.1834 6.83907 14.3295C6.81011 14.4756 6.82516 14.6271 6.88231 14.7647C6.93947 14.9023 7.03615 15.0198 7.16013 15.1024C7.28411 15.185 7.42982 15.229 7.5788 15.2288L7.57823 15.2297ZM9.02405 5.97425V4.49007C9.0244 4.35997 9.07633 4.23532 9.16844 4.14346C9.26056 4.05159 9.38534 4 9.51544 4H17.7337C17.8634 4.0006 17.9876 4.05245 18.0793 4.14425C18.1709 4.23606 18.2225 4.36036 18.2229 4.49007V5.9733C18.2225 6.10301 18.1709 6.22731 18.0793 6.31912C17.9876 6.41092 17.8634 6.46277 17.7337 6.46337V6.47339C17.7011 6.4681 17.6683 6.46475 17.6353 6.46337H9.51506C9.38503 6.46327 9.26034 6.41164 9.16831 6.31978C9.07627 6.22792 9.0244 6.10333 9.02405 5.9733V5.97425ZM8.92747 8.82412V7.33993C8.9274 7.27565 8.93999 7.21198 8.96452 7.15257C8.98905 7.09315 9.02504 7.03914 9.07044 6.99364C9.11585 6.94813 9.16977 6.91201 9.22913 6.88734C9.28849 6.86268 9.35212 6.84994 9.41641 6.84987H17.6353C17.7649 6.85051 17.8891 6.90239 17.9807 6.99419C18.0723 7.08598 18.1238 7.21026 18.1242 7.33993V8.82317C18.1238 8.95281 18.0722 9.07704 17.9806 9.16879C17.889 9.26055 17.7649 9.3124 17.6353 9.31305H9.41641C9.35213 9.313 9.2885 9.30029 9.22914 9.27564C9.16978 9.25099 9.11586 9.21489 9.07046 9.1694C9.02505 9.12391 8.98906 9.06991 8.96452 9.01051C8.93999 8.9511 8.9274 8.88744 8.92747 8.82317V8.82412ZM17.9966 9.70049C18.1267 9.70049 18.2515 9.75208 18.3436 9.84394C18.4357 9.93581 18.4877 10.0605 18.488 10.1906V11.6742C18.4876 11.8042 18.4357 11.9288 18.3436 12.0207C18.2514 12.1125 18.1267 12.164 17.9966 12.164H11.3169C10.7688 11.5351 10.0716 11.0538 9.28921 10.7642V10.1896C9.28956 10.0599 9.34117 9.9356 9.4328 9.8438C9.52443 9.75199 9.64863 9.70014 9.77833 9.69954L17.9966 9.70049ZM19.0091 15.8893V17.3731C19.0091 17.4374 18.9966 17.5011 18.972 17.5605C18.9475 17.6199 18.9115 17.6738 18.8661 17.7193C18.8207 17.7648 18.7667 17.8009 18.7074 17.8255C18.648 17.8501 18.5844 17.8628 18.5201 17.8628H11.8964C12.319 17.1189 12.5405 16.2777 12.539 15.4221V15.3997H18.5205C18.5848 15.3997 18.6483 15.4125 18.7077 15.4371C18.767 15.4618 18.8208 15.4978 18.8662 15.5433C18.9116 15.5888 18.9475 15.6427 18.9721 15.7021C18.9966 15.7615 19.0091 15.8251 19.0091 15.8893ZM20.0107 13.0389V14.5227C20.0103 14.6524 19.9586 14.7766 19.867 14.8683C19.7754 14.96 19.6513 15.0118 19.5216 15.0124H12.5227C12.4495 14.1252 12.1383 13.2741 11.6218 12.549H19.5218C19.6515 12.5497 19.7756 12.6015 19.8672 12.6933C19.9587 12.785 20.0104 12.9093 20.0107 13.0389Z" fill="#E43F71" style="fill:#E43F71;fill:color(display-p3 0.8941 0.2471 0.4431);fill-opacity:1;"/>
</svg>
