<svg width="24" height="24" viewBox="0 0 24 24" fill="none" xmlns="http://www.w3.org/2000/svg">
<path d="M9 6.00012C9 7.10469 8.10457 8.00012 7 8.00012C5.89543 8.00012 5 7.10469 5 6.00012C5 4.89555 5.89543 4.00012 7 4.00012C8.10457 4.00012 9 4.89555 9 6.00012Z" fill="#E43F71" style="fill:#E43F71;fill:color(display-p3 0.8941 0.2471 0.4431);fill-opacity:1;"/>
<path d="M4 13.0001V12.0001C4 10.3433 5.34315 9.00012 7 9.00012C8.65685 9.00012 10 10.3433 10 12.0001V13.0001H4Z" fill="#E43F71" style="fill:#E43F71;fill:color(display-p3 0.8941 0.2471 0.4431);fill-opacity:1;"/>
<path d="M19 12.0001C19 13.1047 18.1046 14.0001 17 14.0001C15.8954 14.0001 15 13.1047 15 12.0001C15 10.8956 15.8954 10.0001 17 10.0001C18.1046 10.0001 19 10.8956 19 12.0001Z" fill="#E43F71" style="fill:#E43F71;fill:color(display-p3 0.8941 0.2471 0.4431);fill-opacity:1;"/>
<path d="M14 18.0001C14 16.3432 15.3431 15.0001 17 15.0001C18.6569 15.0001 20 16.3432 20 18.0001V19.0001H14V18.0001Z" fill="#E43F71" style="fill:#E43F71;fill:color(display-p3 0.8941 0.2471 0.4431);fill-opacity:1;"/>
<path d="M7 15.0001C6.44772 15.0001 6 15.4478 6 16.0001V20.0001H11C11.5523 20.0001 12 19.5524 12 19.0001C12 18.4478 11.5523 18.0001 11 18.0001H8V16.0001C8 15.4478 7.55228 15.0001 7 15.0001Z" fill="#E43F71" style="fill:#E43F71;fill:color(display-p3 0.8941 0.2471 0.4431);fill-opacity:1;"/>
<path d="M18 8.00012C18 8.55241 17.5523 9.00012 17 9.00012C16.4477 9.00012 16 8.55241 16 8.00012V6.00012H12C11.4477 6.00012 11 5.55241 11 5.00012C11 4.44784 11.4477 4.00012 12 4.00012H18V8.00012Z" fill="#E43F71" style="fill:#E43F71;fill:color(display-p3 0.8941 0.2471 0.4431);fill-opacity:1;"/>
</svg>
