<svg width="24" height="24" viewBox="0 0 24 24" fill="none" xmlns="http://www.w3.org/2000/svg">
<path d="M19.2 8.2H13.6V6.6C13.6 5.72 12.88 5 12 5C11.12 5 10.4 5.72 10.4 6.6V8.2H4.8C4.4 8.2 4 8.6 4 9V18.6C4 19.08 4.4 19.4 4.8 19.4H19.2C19.68 19.4 20 19.08 20 18.6V9C20 8.6 19.68 8.2 19.2 8.2ZM8.8 9.8C9.68 9.8 10.4 10.52 10.4 11.4C10.4 12.28 9.68 13 8.8 13C7.92 13 7.2 12.28 7.2 11.4C7.2 10.52 7.92 9.8 8.8 9.8ZM5.6 17C5.6 15.24 7.04 13.8 8.8 13.8C10.56 13.8 12 15.24 12 17H5.6ZM18.4 14.6H12.8V13H18.4V14.6ZM18.4 11.4H12.8V9.8H18.4V11.4Z" fill="#E43F71" style="fill:#E43F71;fill:color(display-p3 0.8941 0.2471 0.4431);fill-opacity:1;"/>
</svg>
