<svg width="25" height="24" viewBox="0 0 25 24" fill="none" xmlns="http://www.w3.org/2000/svg">
<path d="M20.1058 17.6546H17.6211V10.1081C17.6211 9.62813 17.2326 9.23965 16.7526 9.23965H15.8122C15.3322 9.23965 14.9399 9.62813 14.9399 10.1081V17.6546H13.6117V11.5205C13.6117 11.0405 13.2232 10.6482 12.7432 10.6482H11.8027C11.3227 10.6482 10.9342 11.0405 10.9342 11.5205V17.6546H9.60152V13.3968C9.60152 12.9169 9.21303 12.5284 8.73304 12.5284H7.79256C7.31257 12.5284 6.92408 12.9169 6.92408 13.3968V17.6546H5.29962L5.30037 7.76749C5.29512 7.24776 4.50838 7.238 4.50012 7.76749V18.0551C4.50012 18.2793 4.68012 18.4556 4.90061 18.4556C7.50236 18.4548 20.1058 18.4556 20.1058 18.4556C20.6263 18.4481 20.6368 17.6666 20.1058 17.6553L20.1058 17.6546Z" fill="#E43F71" style="fill:#E43F71;fill:color(display-p3 0.8941 0.2471 0.4431);fill-opacity:1;"/>
<path d="M8.26561 9.85462C8.31811 9.85462 8.37211 9.84412 8.42386 9.82161L12.8945 7.89032L12.5165 8.84806C12.3268 9.33329 13.0648 9.62954 13.2612 9.14204L13.8215 7.72157C13.9977 7.27608 13.7787 6.77059 13.334 6.59359L11.915 6.02885C11.708 5.94635 11.4763 6.04685 11.3953 6.2531C11.3135 6.4586 11.4133 6.69108 11.6188 6.77284L12.5795 7.15533L8.10657 9.08721C7.71132 9.2507 7.84182 9.86345 8.26556 9.8552L8.26561 9.85462Z" fill="#E43F71" style="fill:#E43F71;fill:color(display-p3 0.8941 0.2471 0.4431);fill-opacity:1;"/>
</svg>
