<svg width="24" height="24" viewBox="0 0 24 24" fill="none" xmlns="http://www.w3.org/2000/svg">
<path fill-rule="evenodd" clip-rule="evenodd" d="M6.18576 4H14.794C15.9964 4 16.9801 4.98378 16.9801 6.18561V9.45091C16.6908 9.38225 16.3889 9.34504 16.0786 9.34504C13.9402 9.34504 12.2069 11.0783 12.2069 13.2168C12.2069 14.3929 12.7316 15.4459 13.5592 16.1561V19.0534H6.18576C4.98341 19.0534 4.00015 18.0696 4.00015 16.8678V6.18613C4.00015 4.98379 4.98394 4.00052 6.18576 4.00052V4ZM17.814 16.6786V20L16.0786 18.7379L14.3433 20V16.6786C14.8653 16.9407 15.4544 17.0885 16.0786 17.0885C16.7029 17.0885 17.292 16.9407 17.814 16.6786ZM16.0786 10.1297C17.7836 10.1297 19.1663 11.5118 19.1663 13.2168C19.1663 14.9217 17.7841 16.3044 16.0786 16.3044C14.3737 16.3044 12.9915 14.9223 12.9915 13.2168C12.9915 11.5118 14.3737 10.1297 16.0786 10.1297ZM7.01964 8.40371C6.80318 8.40371 6.6276 8.22813 6.6276 8.01166C6.6276 7.7952 6.80318 7.61962 7.01964 7.61962H12.2929C12.5093 7.61962 12.6849 7.7952 12.6849 8.01166C12.6849 8.22813 12.5093 8.40371 12.2929 8.40371H7.01964ZM7.01964 15.3893C6.80318 15.3893 6.6276 15.2137 6.6276 14.9972C6.6276 14.7808 6.80318 14.6052 7.01964 14.6052H10.1744C10.3908 14.6052 10.5664 14.7808 10.5664 14.9972C10.5664 15.2137 10.3908 15.3893 10.1744 15.3893H7.01964ZM7.01964 11.8965C6.80318 11.8965 6.6276 11.7209 6.6276 11.5044C6.6276 11.288 6.80318 11.1124 7.01964 11.1124H10.1744C10.3908 11.1124 10.5664 11.288 10.5664 11.5044C10.5664 11.7209 10.3908 11.8965 10.1744 11.8965H7.01964Z" fill="#E43F71" style="fill:#E43F71;fill:color(display-p3 0.8941 0.2471 0.4431);fill-opacity:1;"/>
</svg>
