<svg width="21" height="21" viewBox="0 0 21 21" fill="none" xmlns="http://www.w3.org/2000/svg">
<path d="M18.4057 16.4168H15.921V8.87033C15.921 8.39034 15.5326 8.00185 15.0526 8.00185H14.1121C13.6321 8.00185 13.2398 8.39034 13.2398 8.87033V16.4168H11.9116V10.2827C11.9116 9.80267 11.5231 9.41042 11.0431 9.41042H10.1027C9.62266 9.41042 9.23417 9.80267 9.23417 10.2827V16.4168H7.90145V12.1591C7.90145 11.6791 7.51296 11.2906 7.03297 11.2906H6.09249C5.6125 11.2906 5.22401 11.6791 5.22401 12.1591V16.4168H3.59954L3.60029 6.5297C3.59504 6.00996 2.8083 6.00021 2.80005 6.5297V16.8173C2.80005 17.0415 2.98005 17.2178 3.20054 17.2178C5.80229 17.217 18.4057 17.2178 18.4057 17.2178C18.9262 17.2103 18.9367 16.4288 18.4057 16.4175L18.4057 16.4168Z" fill="#E43F71" style="fill:#E43F71;fill:color(display-p3 0.8941 0.2471 0.4431);fill-opacity:1;"/>
<path d="M6.56554 8.61682C6.61804 8.61682 6.67204 8.60632 6.72379 8.58382L11.1944 6.65252L10.8164 7.61026C10.6267 8.0955 11.3647 8.39175 11.5612 7.90425L12.1214 6.48378C12.2977 6.03829 12.0787 5.5328 11.6339 5.3558L10.2149 4.79106C10.008 4.70856 9.7762 4.80906 9.69521 5.01531C9.61346 5.2208 9.71321 5.45329 9.91871 5.53504L10.8794 5.91754L6.40649 7.84941C6.01125 8.01291 6.14175 8.62566 6.56549 8.6174L6.56554 8.61682Z" fill="#E43F71" style="fill:#E43F71;fill:color(display-p3 0.8941 0.2471 0.4431);fill-opacity:1;"/>
</svg>
