<svg width="21" height="21" viewBox="0 0 21 21" fill="none" xmlns="http://www.w3.org/2000/svg">
<path d="M7.5 6.79198C8.38295 6.4062 9 5.52516 9 4.5C9 3.11929 7.88071 2 6.5 2C5.11929 2 4 3.11929 4 4.5C4 5.52516 4.61705 6.4062 5.5 6.79198V13.208C4.61705 13.5938 4 14.4748 4 15.5C4 16.8807 5.11929 18 6.5 18C7.88071 18 9 16.8807 9 15.5C9 14.4748 8.38295 13.5938 7.5 13.208V11H15.5V6.79198C16.383 6.4062 17 5.52516 17 4.5C17 3.11929 15.8807 2 14.5 2C13.1193 2 12 3.11929 12 4.5C12 5.52516 12.617 6.4062 13.5 6.79198V9H7.5V6.79198Z" fill="#E43F71" style="fill:#E43F71;fill:color(display-p3 0.8941 0.2471 0.4431);fill-opacity:1;"/>
</svg>
