<svg width="21" height="20" viewBox="0 0 21 20" fill="none" xmlns="http://www.w3.org/2000/svg">
<path d="M12.0901 2C12.1586 1.99899 12.2253 2.02681 12.2737 2.0752C12.3219 2.12347 12.3498 2.18947 12.3489 2.25781V3.4707C13.0463 3.63602 13.7118 3.91306 14.3206 4.29102L15.1819 3.42969C15.2827 3.3319 15.4434 3.3319 15.5432 3.42969L17.3704 5.25684C17.4681 5.35663 17.4681 5.51737 17.3704 5.61816L16.509 6.47949C16.8871 7.08835 17.164 7.7546 17.3293 8.45215H18.5422C18.6107 8.45119 18.6775 8.47803 18.7258 8.52637C18.7741 8.57474 18.8011 8.64151 18.8 8.70996V11.29C18.801 11.3584 18.774 11.4253 18.7258 11.4736C18.6775 11.5219 18.6107 11.5498 18.5422 11.5488H17.3293C17.164 12.2463 16.887 12.9118 16.509 13.5205L17.3704 14.3818C17.4681 14.4826 17.4681 14.6434 17.3704 14.7432L15.5432 16.5703C15.4434 16.668 15.2827 16.668 15.1819 16.5703L14.3206 15.709C13.7118 16.0869 13.0463 16.364 12.3489 16.5293V17.7422C12.3498 17.8106 12.322 17.8775 12.2737 17.9258C12.2253 17.9739 12.1585 18.001 12.0901 18H9.51001C9.44157 18.001 9.37478 17.974 9.32642 17.9258C9.2781 17.8775 9.25127 17.8106 9.2522 17.7422V16.5293C8.55464 16.364 7.88841 16.087 7.27954 15.709L6.41821 16.5703C6.31742 16.668 6.15666 16.668 6.05688 16.5703L4.22974 14.7432C4.13197 14.6434 4.13201 14.4826 4.22974 14.3818L5.09106 13.5205C4.7131 12.9117 4.43608 12.2463 4.27075 11.5488H3.05786C2.98953 11.5497 2.92351 11.5218 2.87524 11.4736C2.82688 11.4253 2.79907 11.3586 2.80005 11.29V8.70996C2.79904 8.64144 2.82689 8.57475 2.87524 8.52637C2.92351 8.47821 2.98957 8.45127 3.05786 8.45215H4.27075C4.43606 7.75461 4.71308 7.08835 5.09106 6.47949L4.22974 5.61816C4.13197 5.51739 4.13201 5.35664 4.22974 5.25684L6.05688 3.42969C6.15668 3.3319 6.31741 3.3319 6.41821 3.42969L7.27954 4.29102C7.8884 3.91299 8.55464 3.63602 9.2522 3.4707V2.25781C9.25131 2.18953 9.27829 2.12346 9.32642 2.0752C9.3748 2.02682 9.44147 1.999 9.51001 2H12.0901ZM12.0559 7.27051C10.9554 6.16976 9.17022 6.16976 8.06958 7.27051C6.9695 8.37131 6.96946 10.1549 8.06958 11.2559C8.94435 12.1306 10.2519 12.3098 11.304 11.7939C11.5742 11.6762 11.7345 11.8095 12.0667 12.1436C12.2937 12.3706 13.1235 13.319 13.1272 13.3232C13.559 13.7547 13.8907 13.4892 14.0901 13.29C14.2891 13.0907 14.5551 12.7588 14.1233 12.3271C14.1155 12.3203 13.1708 11.4944 12.9436 11.2676C12.6094 10.9351 12.476 10.7743 12.594 10.5039C13.1098 9.45156 12.9309 8.14547 12.0559 7.27051Z" fill="#E43F71" style="fill:#E43F71;fill:color(display-p3 0.8941 0.2471 0.4431);fill-opacity:1;"/>
</svg>
