<svg width="25" height="25" viewBox="0 0 25 25" fill="none" xmlns="http://www.w3.org/2000/svg">
<path d="M8.71436 11.2732C10.8759 11.2732 12.6284 13.0257 12.6284 15.1873C12.6284 17.3488 10.8759 19.1013 8.71436 19.1013C6.55275 19.1013 4.80034 17.3488 4.80029 15.1873C4.80029 13.0256 6.55272 11.2732 8.71436 11.2732ZM10.0444 13.0164C9.90679 13.0532 9.82498 13.1951 9.86182 13.3328L9.87744 13.3904C9.68833 13.28 9.48338 13.1964 9.26709 13.1462C8.77327 13.032 8.25471 13.0916 7.80029 13.3162C7.34574 13.5409 6.98298 13.9177 6.77393 14.3796C6.56518 14.8415 6.52263 15.3618 6.65381 15.8513C6.78511 16.3409 7.08185 16.7707 7.49365 17.0662C7.90556 17.3615 8.40777 17.505 8.91357 17.4724C9.4194 17.4397 9.89849 17.2323 10.269 16.8865C10.4245 16.7412 10.5553 16.5732 10.6616 16.3923L10.6685 16.4167C10.7057 16.5539 10.8465 16.6352 10.9839 16.5984C11.1213 16.5615 11.203 16.4204 11.1665 16.283L10.9546 15.4929C10.944 15.4535 10.9237 15.4179 10.8989 15.3865C10.8918 15.3768 10.8839 15.3677 10.8755 15.3591C10.8711 15.3547 10.8665 15.3496 10.8618 15.3455L10.8149 15.3103C10.7459 15.2704 10.6635 15.2604 10.5864 15.281L9.79639 15.4919C9.65891 15.529 9.57789 15.6708 9.61475 15.8083C9.65189 15.9456 9.79276 16.0267 9.93018 15.99L10.3384 15.8806C10.2479 16.1177 10.1054 16.334 9.91748 16.5095C9.63416 16.774 9.26714 16.9317 8.88037 16.9568C8.49359 16.9816 8.10939 16.8721 7.79443 16.6462C7.47959 16.4203 7.25324 16.0918 7.15283 15.7175C7.05249 15.3431 7.08488 14.9448 7.24463 14.5916C7.40452 14.2385 7.68233 13.9518 8.02979 13.78C8.37727 13.6083 8.77328 13.5618 9.15088 13.6492C9.39435 13.7056 9.62066 13.8153 9.81396 13.9685L9.43604 14.0701C9.29847 14.107 9.2166 14.2489 9.25342 14.3865C9.29045 14.5237 9.4315 14.6046 9.56885 14.5681L10.3589 14.3572C10.3778 14.3521 10.3961 14.3443 10.4136 14.3357L10.4165 14.3347C10.4327 14.327 10.4486 14.3177 10.4634 14.3064C10.4778 14.2952 10.4911 14.2827 10.5024 14.2693L10.5073 14.2644L10.5415 14.2166L10.5659 14.1628L10.5796 14.1052L10.5806 14.0466C10.5793 14.0271 10.5769 14.0071 10.5718 13.988L10.3599 13.199C10.323 13.0615 10.1819 12.9798 10.0444 13.0164Z" fill="#E43F71" style="fill:#E43F71;fill:color(display-p3 0.8941 0.2471 0.4431);fill-opacity:1;"/>
<path d="M20.8 14.6282C20.8 15.2457 20.2994 15.7463 19.6819 15.7463H13.6282C13.6492 15.5628 13.6604 15.3759 13.6604 15.1868C13.6602 12.5027 11.4842 10.3274 8.80005 10.3274C8.33772 10.3274 7.89069 10.3923 7.46704 10.5129V9.46704H20.8V14.6282ZM19.6819 6.80005C20.2995 6.80005 20.8 7.30066 20.8 7.91821V8.8645H7.46704V7.91821C7.4671 7.3007 7.96769 6.80011 8.58521 6.80005H19.6819Z" fill="#E43F71" style="fill:#E43F71;fill:color(display-p3 0.8941 0.2471 0.4431);fill-opacity:1;"/>
</svg>
