<svg width="21" height="21" viewBox="0 0 21 21" fill="none" xmlns="http://www.w3.org/2000/svg">
<path fill-rule="evenodd" clip-rule="evenodd" d="M10.8 18.8C15.2183 18.8 18.8 15.2183 18.8 10.8C18.8 6.38177 15.2183 2.80005 10.8 2.80005C6.38177 2.80005 2.80005 6.38177 2.80005 10.8C2.80005 15.2183 6.38177 18.8 10.8 18.8ZM11.4 6.00005C11.4 5.66868 11.1314 5.40005 10.8 5.40005C10.4687 5.40005 10.2 5.66868 10.2 6.00005V6.25343C8.8957 6.48698 7.80005 7.46694 7.80005 8.80005C7.80005 10.3338 9.25029 11.4 10.8 11.4C11.9012 11.4 12.6 12.1246 12.6 12.8C12.6 13.4755 11.9012 14.2 10.8 14.2C9.69885 14.2 9.00005 13.4755 9.00005 12.8C9.00005 12.4687 8.73142 12.2 8.40005 12.2C8.06868 12.2 7.80005 12.4687 7.80005 12.8C7.80005 14.1332 8.8957 15.1131 10.2 15.3467V15.6C10.2 15.9314 10.4687 16.2 10.8 16.2C11.1314 16.2 11.4 15.9314 11.4 15.6V15.3467C12.7044 15.1131 13.8 14.1332 13.8 12.8C13.8 11.2663 12.3498 10.2 10.8 10.2C9.69885 10.2 9.00005 9.47549 9.00005 8.80005C9.00005 8.12463 9.69885 7.40005 10.8 7.40005C11.9012 7.40005 12.6 8.12463 12.6 8.80005C12.6 9.13142 12.8687 9.40005 13.2 9.40005C13.5314 9.40005 13.8 9.13142 13.8 8.80005C13.8 7.46694 12.7044 6.48698 11.4 6.25343V6.00005Z" fill="#E43F71" style="fill:#E43F71;fill:color(display-p3 0.8941 0.2471 0.4431);fill-opacity:1;"/>
</svg>
