<svg width="21" height="21" viewBox="0 0 21 21" fill="none" xmlns="http://www.w3.org/2000/svg">
<path d="M15.0481 4.96492H13.8421V4.87282C13.8421 4.38159 13.443 3.98246 12.9518 3.98246H11.7925C11.5898 3.41018 11.0433 3 10.4035 3C9.7637 3 9.2172 3.41018 9.01458 3.98246H7.85528C7.36405 3.98246 6.96492 4.38159 6.96492 4.87282V4.96492H5.75895C5.34017 4.96492 5 5.30511 5 5.72387V16.2411C5 16.6598 5.34018 17 5.75895 17H15.0481C15.4669 17 15.8071 16.6598 15.8071 16.2411V5.72387C15.8071 5.30509 15.4669 4.96492 15.0481 4.96492ZM7.94736 4.96492H9.42105C9.69246 4.96492 9.91228 4.7451 9.91228 4.47369C9.91228 4.20228 10.1321 3.98247 10.4035 3.98247C10.6749 3.98247 10.8947 4.20228 10.8947 4.47369C10.8947 4.7451 11.1146 4.96492 11.386 4.96492H12.8597V5.94738H7.94736V4.96492ZM8.69893 14.0674L7.47086 15.2954C7.39963 15.3679 7.30507 15.4035 7.21052 15.4035C7.11596 15.4035 7.0214 15.3679 6.95017 15.2954L6.45894 14.8042C6.31526 14.6605 6.31526 14.4272 6.45894 14.2835C6.60263 14.1398 6.83596 14.1398 6.97965 14.2835L7.21053 14.5144L8.17825 13.5467C8.32193 13.403 8.55526 13.403 8.69895 13.5467C8.84264 13.6904 8.84262 13.9237 8.69893 14.0674ZM8.69893 11.12L7.47086 12.3481C7.39963 12.4205 7.30507 12.4561 7.21052 12.4561C7.11596 12.4561 7.0214 12.4205 6.95017 12.3481L6.45894 11.8568C6.31526 11.7132 6.31526 11.4798 6.45894 11.3361C6.60263 11.1924 6.83596 11.1924 6.97965 11.3361L7.21053 11.567L8.17825 10.5993C8.32193 10.4556 8.55526 10.4556 8.69895 10.5993C8.84264 10.743 8.84262 10.9763 8.69893 11.12ZM8.69893 8.17261L7.47086 9.40069C7.39963 9.47314 7.30507 9.50876 7.21052 9.50876C7.11596 9.50876 7.0214 9.47314 6.95017 9.40069L6.45894 8.90946C6.31526 8.76577 6.31526 8.53244 6.45894 8.38875C6.60263 8.24506 6.83596 8.24507 6.97965 8.38875L7.21053 8.61964L8.17825 7.65193C8.32193 7.50824 8.55526 7.50824 8.69895 7.65193C8.84264 7.79561 8.84262 8.02892 8.69893 8.17261ZM13.8421 14.9123H10.1578C9.95398 14.9123 9.78942 14.7477 9.78942 14.5439C9.78942 14.34 9.95398 14.1754 10.1578 14.1754H13.8421C14.046 14.1754 14.2106 14.34 14.2106 14.5439C14.2106 14.7477 14.046 14.9123 13.8421 14.9123ZM13.8421 11.9649H10.1578C9.95398 11.9649 9.78942 11.8003 9.78942 11.5965C9.78942 11.3926 9.95398 11.228 10.1578 11.228H13.8421C14.046 11.228 14.2106 11.3926 14.2106 11.5965C14.2106 11.8003 14.046 11.9649 13.8421 11.9649ZM13.8421 9.01753H10.1578C9.95398 9.01753 9.78942 8.85296 9.78942 8.6491C9.78942 8.44523 9.95398 8.28067 10.1578 8.28067H13.8421C14.046 8.28067 14.2106 8.44523 14.2106 8.6491C14.2106 8.85296 14.046 9.01753 13.8421 9.01753Z" fill="#E43F71" style="fill:#E43F71;fill:color(display-p3 0.8941 0.2471 0.4431);fill-opacity:1;"/>
</svg>
