<svg width="18" height="16" viewBox="0 0 18 16" fill="none" xmlns="http://www.w3.org/2000/svg">
<path fill-rule="evenodd" clip-rule="evenodd" d="M4.57823 6.84656C3.67293 6.84626 2.78788 7.11445 2.03501 7.61722C1.28215 8.11998 0.695309 8.83473 0.34871 9.67106C0.00211007 10.5074 -0.0886738 11.4277 0.0878411 12.3156C0.264356 13.2036 0.70024 14.0192 1.34036 14.6594C1.98048 15.2995 2.79607 15.7355 3.68399 15.9121C4.5719 16.0887 5.49224 15.998 6.32859 15.6514C7.16495 15.3049 7.87975 14.7181 8.38257 13.9653C8.8854 13.2125 9.15367 12.3274 9.15344 11.4221C9.15179 10.2092 8.66924 9.04639 7.81159 8.18867C6.95395 7.33095 5.79118 6.84831 4.57823 6.84656ZM4.57823 11.2297C4.86348 11.2299 5.1383 11.3371 5.34836 11.53C5.55843 11.723 5.68845 11.9878 5.71275 12.272C5.73704 12.5562 5.65383 12.8392 5.47957 13.065C5.3053 13.2908 5.05266 13.4431 4.77158 13.4916V13.9753C4.77001 14.0255 4.74896 14.0731 4.71289 14.1081C4.67682 14.143 4.62856 14.1626 4.57833 14.1626C4.5281 14.1626 4.47984 14.143 4.44377 14.1081C4.4077 14.0731 4.38665 14.0255 4.38508 13.9753V13.4907C4.12029 13.445 3.8801 13.3074 3.70682 13.1021C3.53354 12.8967 3.43829 12.6368 3.43783 12.3681C3.43702 12.3422 3.44142 12.3164 3.45077 12.2922C3.46012 12.2681 3.47422 12.2461 3.49225 12.2275C3.51027 12.2089 3.53185 12.1941 3.5557 12.184C3.57955 12.1739 3.60518 12.1687 3.63108 12.1687C3.65698 12.1687 3.68262 12.1739 3.70646 12.184C3.73031 12.1941 3.75189 12.2089 3.76992 12.2275C3.78794 12.2461 3.80205 12.2681 3.81139 12.2922C3.82074 12.3164 3.82514 12.3422 3.82433 12.3681C3.82429 12.517 3.8684 12.6625 3.95107 12.7863C4.03374 12.9102 4.15127 13.0067 4.2888 13.0638C4.42632 13.1208 4.57767 13.1358 4.72372 13.1068C4.86977 13.0779 5.00395 13.0063 5.10931 12.9011C5.21467 12.7959 5.28648 12.6618 5.31565 12.5158C5.34483 12.3698 5.33006 12.2184 5.27322 12.0808C5.21638 11.9432 5.12002 11.8255 4.99632 11.7427C4.87261 11.6598 4.72712 11.6155 4.57823 11.6153C4.29292 11.6152 4.01804 11.508 3.80796 11.315C3.59787 11.1219 3.46788 10.8571 3.4437 10.5728C3.41952 10.2885 3.5029 10.0055 3.67736 9.77972C3.85182 9.55396 4.10464 9.40189 4.38584 9.35359V8.86995C4.38503 8.84406 4.38943 8.81827 4.39877 8.79412C4.40812 8.76997 4.42222 8.74794 4.44025 8.72934C4.45827 8.71074 4.47985 8.69596 4.5037 8.68586C4.52755 8.67576 4.55319 8.67056 4.57908 8.67056C4.60498 8.67056 4.63062 8.67576 4.65447 8.68586C4.67832 8.69596 4.69989 8.71074 4.71792 8.72934C4.73594 8.74794 4.75005 8.76997 4.7594 8.79412C4.76874 8.81827 4.77314 8.84406 4.77233 8.86995V9.35359C5.03671 9.39972 5.27637 9.53756 5.44919 9.74288C5.62202 9.94819 5.71695 10.2078 5.71731 10.4762C5.71731 10.5275 5.69694 10.5767 5.66068 10.6129C5.62442 10.6492 5.57525 10.6696 5.52397 10.6696C5.47269 10.6696 5.42351 10.6492 5.38725 10.6129C5.351 10.5767 5.33063 10.5275 5.33063 10.4762C5.3307 10.3272 5.28657 10.1816 5.20383 10.0577C5.12109 9.93378 5.00346 9.83721 4.86581 9.7802C4.72817 9.72319 4.5767 9.70829 4.43059 9.73739C4.28447 9.76649 4.15027 9.83829 4.04498 9.94369C3.93968 10.0491 3.86802 10.1834 3.83907 10.3295C3.81011 10.4756 3.82516 10.6271 3.88231 10.7647C3.93947 10.9023 4.03615 11.0198 4.16013 11.1024C4.28411 11.185 4.42982 11.229 4.5788 11.2288L4.57823 11.2297ZM6.02405 1.97425V0.490066C6.0244 0.359971 6.07633 0.235324 6.16844 0.143456C6.26056 0.051589 6.38534 -4.71498e-07 6.51544 0H14.7337C14.8634 0.000598165 14.9876 0.0524521 15.0793 0.144255C15.1709 0.236058 15.2225 0.360363 15.2229 0.490066V1.9733C15.2225 2.10301 15.1709 2.22731 15.0793 2.31912C14.9876 2.41092 14.8634 2.46277 14.7337 2.46337V2.47339C14.7011 2.4681 14.6683 2.46475 14.6353 2.46337H6.51506C6.38503 2.46327 6.26034 2.41164 6.16831 2.31978C6.07627 2.22792 6.0244 2.10333 6.02405 1.9733V1.97425ZM5.92747 4.82412V3.33993C5.9274 3.27565 5.93999 3.21198 5.96452 3.15257C5.98905 3.09315 6.02504 3.03914 6.07044 2.99364C6.11585 2.94813 6.16977 2.91201 6.22913 2.88734C6.28849 2.86268 6.35212 2.84994 6.41641 2.84987H14.6353C14.7649 2.85051 14.8891 2.90239 14.9807 2.99419C15.0723 3.08598 15.1238 3.21026 15.1242 3.33993V4.82317C15.1238 4.95281 15.0722 5.07704 14.9806 5.16879C14.889 5.26055 14.7649 5.3124 14.6353 5.31305H6.41641C6.35213 5.313 6.2885 5.30029 6.22914 5.27564C6.16978 5.25099 6.11586 5.21489 6.07046 5.1694C6.02505 5.12391 5.98906 5.06991 5.96452 5.01051C5.93999 4.9511 5.9274 4.88744 5.92747 4.82317V4.82412ZM14.9966 5.70049C15.1267 5.70049 15.2515 5.75208 15.3436 5.84394C15.4357 5.93581 15.4877 6.06046 15.488 6.19055V7.67417C15.4876 7.80423 15.4357 7.92883 15.3436 8.02066C15.2514 8.11248 15.1267 8.16405 14.9966 8.16405H8.31695C7.7688 7.53512 7.0716 7.0538 6.28921 6.76416V6.18961C6.28956 6.05991 6.34117 5.9356 6.4328 5.8438C6.52443 5.75199 6.64863 5.70014 6.77833 5.69954L14.9966 5.70049ZM16.0091 11.8893V13.3731C16.0091 13.4374 15.9966 13.5011 15.972 13.5605C15.9475 13.6199 15.9115 13.6738 15.8661 13.7193C15.8207 13.7648 15.7667 13.8009 15.7074 13.8255C15.648 13.8501 15.5844 13.8628 15.5201 13.8628H8.89641C9.31901 13.1189 9.54048 12.2777 9.53899 11.4221V11.3997H15.5205C15.5848 11.3997 15.6483 11.4125 15.7077 11.4371C15.767 11.4618 15.8208 11.4978 15.8662 11.5433C15.9116 11.5888 15.9475 11.6427 15.9721 11.7021C15.9966 11.7615 16.0091 11.8251 16.0091 11.8893ZM17.0107 9.03891V10.5227C17.0103 10.6524 16.9586 10.7766 16.867 10.8683C16.7754 10.96 16.6513 11.0118 16.5216 11.0124H9.52274C9.44953 10.1252 9.13828 9.27414 8.6218 8.54903H16.5218C16.6515 8.54968 16.7756 8.60153 16.8672 8.69328C16.9587 8.78504 17.0104 8.90927 17.0107 9.03891Z" fill="#E43F71" style="fill:#E43F71;fill:color(display-p3 0.8941 0.2471 0.4431);fill-opacity:1;"/>
</svg>
