<svg width="16" height="13" viewBox="0 0 16 13" fill="none" xmlns="http://www.w3.org/2000/svg">
<path d="M3.91418 4.47314C6.07578 4.47319 7.82825 6.2256 7.82825 8.38721C7.8282 10.5488 6.07575 12.3012 3.91418 12.3013C1.75258 12.3013 0.000167426 10.5488 0.00012207 8.38721C0.00012207 6.22558 1.75255 4.47314 3.91418 4.47314ZM5.24426 6.21729C5.10665 6.25416 5.02487 6.3951 5.06165 6.53271L5.07727 6.59033C4.88815 6.47992 4.68323 6.39533 4.46692 6.34521C3.97312 6.23099 3.4545 6.29153 3.00012 6.51611C2.54563 6.7408 2.18285 7.11675 1.97375 7.57861C1.76488 8.04042 1.72256 8.56069 1.85364 9.05029C1.98486 9.53995 2.28164 9.96957 2.69348 10.2651C3.10544 10.5606 3.60749 10.705 4.1134 10.6724C4.61942 10.6397 5.09826 10.4315 5.46887 10.0854C5.62421 9.94037 5.75519 9.77393 5.86145 9.59326L5.86731 9.61572C5.90425 9.75331 6.04609 9.83522 6.18372 9.79834C6.32121 9.76137 6.40214 9.61949 6.36536 9.48193L6.15442 8.69287C6.13887 8.63507 6.106 8.58334 6.06165 8.54443L6.01379 8.51025C5.94487 8.47058 5.86311 8.45953 5.78625 8.47998L4.99622 8.69189C4.8589 8.72887 4.77708 8.86992 4.8136 9.00732C4.85047 9.14495 4.99238 9.22674 5.13 9.18994L5.53821 9.08057C5.44779 9.31766 5.30514 9.53302 5.11731 9.7085C4.83395 9.97313 4.4671 10.1317 4.0802 10.1567C3.6934 10.1816 3.30923 10.0721 2.99426 9.84619C2.67927 9.62017 2.45302 9.29099 2.35266 8.9165C2.25249 8.5422 2.28383 8.14456 2.44348 7.7915C2.60336 7.43825 2.88202 7.15085 3.22961 6.979C3.57704 6.80744 3.97321 6.76173 4.35071 6.84912C4.59439 6.90559 4.82037 7.01603 5.01379 7.16943L4.63586 7.271C4.49835 7.30794 4.41649 7.44887 4.45325 7.58643C4.49035 7.72371 4.63221 7.80579 4.76965 7.76904L5.55872 7.55713C5.57768 7.55202 5.59685 7.54526 5.61438 7.53662L5.61633 7.53467L5.61926 7.53369L5.66321 7.50635L5.66418 7.50537L5.70715 7.46533L5.74133 7.41748L5.76575 7.36377L5.77942 7.30615L5.78137 7.24658C5.78009 7.22728 5.77659 7.20774 5.77161 7.18896L5.55969 6.39893C5.52263 6.26164 5.38168 6.18062 5.24426 6.21729Z" fill="#E43F71" style="fill:#E43F71;fill:color(display-p3 0.8941 0.2471 0.4431);fill-opacity:1;"/>
<path d="M15.9998 7.82812C15.9997 8.44566 15.4991 8.94629 14.8816 8.94629H8.82788C8.84891 8.76277 8.86011 8.57587 8.86011 8.38672C8.85992 5.70266 6.68386 3.52734 3.99976 3.52734C3.53742 3.52738 3.0904 3.59227 2.66675 3.71289V2.66699H15.9998V7.82812ZM14.8816 0C15.4992 0 15.9997 0.500608 15.9998 1.11816V2.06445H2.66675V1.11816C2.66681 0.500647 3.1674 6.24161e-05 3.78491 0H14.8816Z" fill="#E43F71" style="fill:#E43F71;fill:color(display-p3 0.8941 0.2471 0.4431);fill-opacity:1;"/>
</svg>
