<svg width="16" height="13" viewBox="0 0 16 13" fill="none" xmlns="http://www.w3.org/2000/svg">
<path d="M3.91431 4.47314C6.0759 4.47319 7.82837 6.2256 7.82837 8.38721C7.82832 10.5488 6.07587 12.3012 3.91431 12.3013C1.7527 12.3013 0.000289496 10.5488 0.000244141 8.38721C0.000244141 6.22558 1.75268 4.47314 3.91431 4.47314ZM5.24438 6.21729C5.10674 6.25417 5.02493 6.39507 5.06177 6.53271L5.07739 6.59033C4.88829 6.47993 4.68333 6.39533 4.46704 6.34521C3.97325 6.23101 3.45461 6.29153 3.00024 6.51611C2.54575 6.7408 2.18297 7.11674 1.97388 7.57861C1.765 8.04042 1.72268 8.56069 1.85376 9.05029C1.98497 9.53993 2.28179 9.96957 2.6936 10.2651C3.10555 10.5606 3.60763 10.7049 4.11353 10.6724C4.61954 10.6397 5.09838 10.4315 5.46899 10.0854C5.62433 9.94037 5.75531 9.77393 5.86157 9.59326L5.86743 9.61572C5.90438 9.75331 6.04621 9.83522 6.18384 9.79834C6.32133 9.76137 6.40226 9.61949 6.36548 9.48193L6.15454 8.69287C6.13898 8.63511 6.1061 8.58332 6.06177 8.54443L6.01392 8.51025C5.94499 8.47058 5.86323 8.45953 5.78638 8.47998L4.99634 8.69189C4.85903 8.72887 4.7772 8.86992 4.81372 9.00732C4.8506 9.14495 4.9925 9.22674 5.13013 9.18994L5.53833 9.08057C5.44791 9.31766 5.30526 9.53302 5.11743 9.7085C4.83407 9.97313 4.46723 10.1317 4.08032 10.1567C3.69354 10.1816 3.30934 10.0721 2.99438 9.84619C2.67942 9.62017 2.45313 9.29096 2.35278 8.9165C2.25262 8.54222 2.28398 8.14454 2.4436 7.7915C2.60349 7.43827 2.88215 7.15083 3.22974 6.979C3.5771 6.80747 3.97339 6.76082 4.35083 6.84814C4.59451 6.90461 4.8205 7.01603 5.01392 7.16943L4.63599 7.271C4.49845 7.30794 4.41655 7.44884 4.45337 7.58643C4.49044 7.72377 4.6323 7.8058 4.76978 7.76904L5.55884 7.55713C5.57763 7.55207 5.59614 7.54515 5.61353 7.53662L5.61646 7.53467L5.61938 7.53369L5.66333 7.50635L5.66431 7.50537L5.70728 7.46533L5.74146 7.41748L5.76587 7.36279L5.77954 7.30615L5.78149 7.24658C5.78021 7.22725 5.77672 7.20777 5.77173 7.18896L5.55981 6.39893C5.52279 6.26159 5.38184 6.18061 5.24438 6.21729Z" fill="#E43F71" style="fill:#E43F71;fill:color(display-p3 0.8941 0.2471 0.4431);fill-opacity:1;"/>
<path d="M16 7.82812C15.9999 8.44566 15.4994 8.94629 14.8818 8.94629H8.82812C8.84915 8.76277 8.86035 8.57587 8.86035 8.38672C8.86016 5.70266 6.6841 3.52734 4 3.52734C3.53767 3.52738 3.09064 3.59227 2.66699 3.71289V2.66699H16V7.82812ZM14.8818 0C15.4994 0 15.9999 0.500608 16 1.11816V2.06445H2.66699V1.11816C2.66705 0.500647 3.16764 6.24161e-05 3.78516 0H14.8818Z" fill="#E43F71" style="fill:#E43F71;fill:color(display-p3 0.8941 0.2471 0.4431);fill-opacity:1;"/>
</svg>
