<svg width="16" height="16" viewBox="0 0 16 16" fill="none" xmlns="http://www.w3.org/2000/svg">
<path fill-rule="evenodd" clip-rule="evenodd" d="M14.0733 4.26028C14.5919 4.04852 15.1841 4.2973 15.3958 4.81595C17.0899 8.96514 15.0995 13.702 10.9505 15.396C8.55559 16.3738 5.96424 16.1232 3.87851 14.9415C3.39111 14.6653 3.21987 14.0462 3.49603 13.5588C3.77219 13.0714 4.39119 12.9002 4.8786 13.1764C6.44702 14.0651 8.38829 14.2508 10.1836 13.5178C13.2954 12.2474 14.7881 8.69467 13.5177 5.58279C13.3059 5.06414 13.5547 4.47202 14.0733 4.26028ZM1.99538 9.42715C2.0623 9.68081 2.14648 9.93343 2.24865 10.1838C2.35084 10.434 2.46754 10.6734 2.59727 10.9014C2.87434 11.3883 2.70422 12.0076 2.21733 12.2847C1.73044 12.5617 1.11112 12.3916 0.834061 11.9047C0.661042 11.6006 0.505916 11.2823 0.370482 10.9505C0.235048 10.6188 0.123034 10.2829 0.0338003 9.94458C-0.10909 9.40293 0.214191 8.84797 0.755867 8.70508C1.29754 8.56219 1.85249 8.88547 1.99538 9.42715ZM2.26287 3.42539C2.74681 3.70761 2.91032 4.3287 2.62811 4.81262C2.36001 5.27235 2.15273 5.76565 2.01202 6.2789C1.8639 6.81918 1.30585 7.13709 0.765579 6.98896C0.22531 6.84083 -0.0925887 6.28278 0.0555326 5.74251C0.242864 5.05921 0.518729 4.40265 0.875649 3.79061C1.15787 3.30669 1.77895 3.14316 2.26287 3.42539ZM10.0239 0.0555327C10.7072 0.242866 11.3637 0.518733 11.9758 0.875665C12.4597 1.15788 12.6232 1.77896 12.341 2.26289C12.0588 2.74683 11.4377 2.91034 10.9538 2.62813C10.4941 2.36002 10.0007 2.15275 9.4875 2.01203C8.94724 1.86392 8.62934 1.30586 8.77746 0.765585C8.92558 0.225312 9.48363 -0.0925898 10.0239 0.0555327ZM7.06135 0.755872C7.20424 1.29755 6.88096 1.8525 6.33928 1.9954C6.08563 2.06231 5.83298 2.14649 5.58271 2.24867C5.33244 2.35085 5.09307 2.46756 4.86507 2.5973C4.37817 2.87436 3.75886 2.70424 3.4818 2.21735C3.20474 1.73045 3.37486 1.11113 3.86175 0.834067C4.16582 0.661047 4.48417 0.505919 4.81589 0.370484C5.1476 0.235049 5.48356 0.123035 5.82184 0.0338002C6.36351 -0.10909 6.91846 0.214192 7.06135 0.755872Z" fill="#E43F71" style="fill:#E43F71;fill:color(display-p3 0.8941 0.2471 0.4431);fill-opacity:1;"/>
<path d="M7.92993 3.33911C10.4655 3.33911 12.5215 5.39445 12.5217 7.92993C12.5217 10.4656 10.4656 12.5217 7.92993 12.5217C5.39445 12.5215 3.33911 10.4655 3.33911 7.92993C3.33937 5.39461 5.39461 3.33937 7.92993 3.33911ZM10.5295 6.1145C10.3237 5.91079 9.99124 5.91265 9.78735 6.11841L7.17017 8.75903L6.20435 7.78442C6.00041 7.57873 5.66798 7.57674 5.46216 7.78052C5.25657 7.98443 5.25458 8.3169 5.45825 8.52271L6.7981 9.87427C6.89648 9.97339 7.03051 10.0294 7.17017 10.0295C7.31003 10.0295 7.4447 9.97354 7.54321 9.87427L10.5334 6.85669C10.7371 6.65082 10.7353 6.31837 10.5295 6.1145Z" fill="#E43F71" style="fill:#E43F71;fill:color(display-p3 0.8941 0.2471 0.4431);fill-opacity:1;"/>
</svg>
