<svg width="16" height="16" viewBox="0 0 16 16" fill="none" xmlns="http://www.w3.org/2000/svg">
<path d="M15.7724 12.238L9.66152 0.982419C9.49974 0.685163 9.2608 0.437028 8.96986 0.264138C8.67892 0.0912483 8.34675 0 8.00832 0C7.66989 0 7.33772 0.0912483 7.04678 0.264138C6.75584 0.437028 6.5169 0.685163 6.35512 0.982419L0.237955 12.238C0.0778456 12.5254 -0.00414334 12.8497 0.000161166 13.1787C0.00446567 13.5076 0.0949131 13.8297 0.262488 14.1128C0.430063 14.3959 0.668912 14.6301 0.955227 14.7922C1.24154 14.9542 1.56532 15.0383 1.89429 15.0362H14.1161C14.4423 15.0365 14.7631 14.952 15.0469 14.7909C15.3306 14.6299 15.5676 14.3978 15.7347 14.1176C15.9017 13.8373 15.993 13.5184 15.9996 13.1922C16.0062 12.866 15.9279 12.5436 15.7724 12.2568V12.238ZM7.07035 4.20726C7.07035 3.95767 7.16951 3.71829 7.346 3.5418C7.52249 3.36531 7.76186 3.26616 8.01146 3.26616C8.26105 3.26616 8.50043 3.36531 8.67692 3.5418C8.85341 3.71829 8.95256 3.95767 8.95256 4.20726V8.53006C8.95256 8.77965 8.85341 9.01902 8.67692 9.19552C8.50043 9.37201 8.26105 9.47116 8.01146 9.47116C7.76186 9.47116 7.52249 9.37201 7.346 9.19552C7.16951 9.01902 7.07035 8.77965 7.07035 8.53006V4.20726ZM8.03655 12.6835C7.82312 12.6835 7.61448 12.6202 7.43702 12.5016C7.25956 12.383 7.12124 12.2145 7.03957 12.0173C6.95789 11.8201 6.93652 11.6031 6.97816 11.3938C7.0198 11.1845 7.12257 10.9922 7.27349 10.8413C7.42441 10.6903 7.61669 10.5876 7.82603 10.5459C8.03536 10.5043 8.25233 10.5257 8.44952 10.6073C8.6467 10.689 8.81524 10.8273 8.93382 11.0048C9.05239 11.1823 9.11568 11.3909 9.11568 11.6043C9.11568 11.8905 9.00199 12.165 8.79961 12.3674C8.59724 12.5698 8.32276 12.6835 8.03655 12.6835Z" fill="#E43F71" style="fill:#E43F71;fill:color(display-p3 0.8941 0.2471 0.4431);fill-opacity:1;"/>
</svg>
