<svg width="16" height="18" viewBox="0 0 16 18" fill="none" xmlns="http://www.w3.org/2000/svg">
<path d="M13.8135 3.85737H14.143C14.4983 3.85737 14.7858 3.56953 14.7858 3.21451C14.7858 2.8595 14.4983 2.57166 14.143 2.57166H12.2144C11.8591 2.57166 11.5715 2.8595 11.5715 3.21451V5.14308C11.5715 5.4981 11.8591 5.78594 12.2144 5.78594C12.5697 5.78594 12.8572 5.4981 12.8572 5.14308V4.74538C13.6879 6.00143 14.143 7.48258 14.143 9.00023C14.143 10.4611 13.7324 11.883 12.9564 13.1126C12.7668 13.4127 12.8566 13.8097 13.1567 13.9993C13.2634 14.0665 13.3821 14.0985 13.4995 14.0985C13.7129 14.0985 13.9214 13.9924 14.0438 13.7987C14.9497 12.3636 15.4287 10.7044 15.4287 9.00023C15.4287 7.15817 14.8592 5.3592 13.8135 3.85737Z" fill="#E43F71" style="fill:#E43F71;fill:color(display-p3 0.8941 0.2471 0.4431);fill-opacity:1;"/>
<path d="M3.21429 3.21441C3.21429 2.85939 2.92676 2.57155 2.57143 2.57155H2.17357C3.42895 1.74094 4.91038 1.28584 6.42857 1.28584C7.90702 1.28584 9.3434 1.7052 10.5833 2.49873C10.8821 2.68989 11.2795 2.60263 11.471 2.3038C11.6625 2.00466 11.5752 1.60726 11.2764 1.41579C9.82931 0.489798 8.15311 0.00012207 6.42857 0.00012207C4.58589 0.00012207 2.78719 0.569449 1.28571 1.61499V1.28584C1.28571 0.930821 0.998186 0.642979 0.642857 0.642979C0.287528 0.642979 0 0.930821 0 1.28584V3.21441C0 3.56942 0.287528 3.85726 0.642857 3.85726H2.57143C2.92676 3.85726 3.21429 3.56942 3.21429 3.21441Z" fill="#E43F71" style="fill:#E43F71;fill:color(display-p3 0.8941 0.2471 0.4431);fill-opacity:1;"/>
<path d="M12.2144 14.1429H10.2859C9.93053 14.1429 9.643 14.4308 9.643 14.7858C9.643 15.1408 9.93053 15.4287 10.2859 15.4287H10.6837C9.42834 16.2593 7.94691 16.7144 6.42872 16.7144C5.8446 16.7144 5.26774 16.6464 4.70626 16.5183L3.68115 17.5668C4.56359 17.8495 5.48817 18.0001 6.42872 18.0001C8.2714 18.0001 10.0701 17.4308 11.5716 16.3852V16.7144C11.5716 17.0694 11.8591 17.3572 12.2144 17.3572C12.5698 17.3572 12.8573 17.0694 12.8573 16.7144V14.7858C12.8573 14.4308 12.5698 14.1429 12.2144 14.1429Z" fill="#E43F71" style="fill:#E43F71;fill:color(display-p3 0.8941 0.2471 0.4431);fill-opacity:1;"/>
<path d="M11.527 16.3849L11.527 16.7144C11.527 17.0697 11.8149 17.3572 12.1699 17.3572C12.5249 17.3572 12.8127 17.0697 12.8127 16.7144L12.8127 14.7858C12.8127 14.4305 12.5249 14.1429 12.1699 14.1429L10.2413 14.1429C9.8863 14.1429 9.59846 14.4305 9.59846 14.7858C9.59846 15.1411 9.8863 15.4287 10.2413 15.4287L10.639 15.4287C9.38297 16.2593 7.90182 16.7144 6.38417 16.7144C4.9233 16.7144 3.50136 16.3038 2.27183 15.5278C1.97175 15.3383 1.57467 15.428 1.38508 15.7281C1.31791 15.8348 1.28589 15.9535 1.28589 16.0709C1.28589 16.2843 1.39198 16.4928 1.58566 16.6152C3.02079 17.5211 4.68004 18.0001 6.38417 18.0001C8.22623 18.0001 10.0252 17.4306 11.527 16.3849Z" fill="#E43F71" style="fill:#E43F71;fill:color(display-p3 0.8941 0.2471 0.4431);fill-opacity:1;"/>
<path d="M6.04462 6.8894C5.56528 7.02047 5.27637 7.38829 5.27637 7.73577C5.27637 8.08328 5.56528 8.45107 6.04462 8.58213V6.8894Z" fill="#E43F71" style="fill:#E43F71;fill:color(display-p3 0.8941 0.2471 0.4431);fill-opacity:1;"/>
<path d="M6.81299 9.4502V11.1429C7.29233 11.0119 7.58124 10.6441 7.58124 10.2966C7.58124 9.94905 7.29233 9.58126 6.81299 9.4502Z" fill="#E43F71" style="fill:#E43F71;fill:color(display-p3 0.8941 0.2471 0.4431);fill-opacity:1;"/>
<path fill-rule="evenodd" clip-rule="evenodd" d="M11.5504 9.0161C11.5504 11.8447 9.25731 14.1378 6.4287 14.1378C3.60007 14.1378 1.30701 11.8447 1.30701 9.0161C1.30701 6.18747 3.60007 3.89441 6.4287 3.89441C9.25731 3.89441 11.5504 6.18747 11.5504 9.0161ZM6.4287 5.55896C6.64084 5.55896 6.81283 5.73094 6.81283 5.94309V6.10531C7.64787 6.25483 8.34933 6.88221 8.34933 7.73568C8.34933 7.94782 8.17735 8.11981 7.96521 8.11981C7.75307 8.11981 7.58108 7.94782 7.58108 7.73568C7.58108 7.38819 7.29217 7.02038 6.81283 6.88931V8.66614C7.64787 8.81569 8.34933 9.44305 8.34933 10.2965C8.34933 11.15 7.64787 11.7774 6.81283 11.9269V12.0891C6.81283 12.3013 6.64084 12.4732 6.4287 12.4732C6.21656 12.4732 6.04457 12.3013 6.04457 12.0891V11.9269C5.20952 11.7774 4.50806 11.15 4.50806 10.2965C4.50806 10.0844 4.68005 9.9124 4.89219 9.9124C5.10434 9.9124 5.27632 10.0844 5.27632 10.2965C5.27632 10.644 5.56523 11.0118 6.04457 11.1429V9.36607C5.20952 9.21651 4.50806 8.58916 4.50806 7.73568C4.50806 6.88221 5.20952 6.25483 6.04457 6.10531V5.94309C6.04457 5.73094 6.21656 5.55896 6.4287 5.55896Z" fill="#E43F71" style="fill:#E43F71;fill:color(display-p3 0.8941 0.2471 0.4431);fill-opacity:1;"/>
</svg>
