<svg width="16" height="13" viewBox="0 0 16 13" fill="none" xmlns="http://www.w3.org/2000/svg">
<path d="M15.6056 11.6546H13.121V4.10813C13.121 3.62813 12.7325 3.23965 12.2525 3.23965H11.312C10.832 3.23965 10.4398 3.62813 10.4398 4.10813V11.6546H9.11156V5.52046C9.11156 5.04046 8.72307 4.64821 8.24308 4.64821H7.3026C6.82261 4.64821 6.43413 5.04046 6.43413 5.52046V11.6546H5.1014V7.39684C5.1014 6.91685 4.71291 6.52836 4.23292 6.52836H3.29244C2.81245 6.52836 2.42396 6.91685 2.42396 7.39684V11.6546H0.799493L0.800243 1.76749C0.794994 1.24776 0.00825587 1.238 0 1.76749V12.0551C0 12.2793 0.179997 12.4556 0.400487 12.4556C3.00224 12.4548 15.6057 12.4556 15.6057 12.4556C16.1262 12.4481 16.1367 11.6666 15.6057 11.6553L15.6056 11.6546Z" fill="#E43F71" style="fill:#E43F71;fill:color(display-p3 0.8941 0.2471 0.4431);fill-opacity:1;"/>
<path d="M3.76549 3.85462C3.81799 3.85462 3.87199 3.84412 3.92374 3.82161L8.39439 1.89032L8.01639 2.84806C7.82664 3.33329 8.56463 3.62954 8.76112 3.14204L9.32137 1.72157C9.49762 1.27608 9.27862 0.770591 8.83387 0.593589L7.4149 0.0288488C7.20791 -0.0536504 6.97615 0.0468484 6.89516 0.253101C6.81341 0.458596 6.91316 0.691085 7.11867 0.772837L8.0794 1.15533L3.60645 3.08721C3.2112 3.2507 3.3417 3.86345 3.76544 3.8552L3.76549 3.85462Z" fill="#E43F71" style="fill:#E43F71;fill:color(display-p3 0.8941 0.2471 0.4431);fill-opacity:1;"/>
</svg>
