<svg width="15" height="16" viewBox="0 0 15 16" fill="none" xmlns="http://www.w3.org/2000/svg">
<path d="M7.08041 7.54326C9.16339 7.54326 10.852 5.85467 10.852 3.77169C10.852 1.68871 9.16339 0.00012207 7.08041 0.00012207C4.99743 0.00012207 3.30884 1.68871 3.30884 3.77169C3.30884 5.85467 4.99743 7.54326 7.08041 7.54326Z" fill="#E43F71" style="fill:#E43F71;fill:color(display-p3 0.8941 0.2471 0.4431);fill-opacity:1;"/>
<path d="M9.16567 7.76099H4.99448C2.23609 7.76099 0 9.99708 0 12.7557V16.0001H14.1599V12.7557C14.1599 9.99708 11.9243 7.76099 9.16567 7.76099ZM9.02972 12.5641H7.76382V13.83H6.39633V12.5641H5.13021V11.1966H6.39633V9.93068H7.76382V11.1966H9.02972V12.5641Z" fill="#E43F71" style="fill:#E43F71;fill:color(display-p3 0.8941 0.2471 0.4431);fill-opacity:1;"/>
</svg>
