<svg width="28" height="28" viewBox="0 0 28 28" fill="none" xmlns="http://www.w3.org/2000/svg">
<g clip-path="url(#clip0_571_533)">
<rect width="28" height="28" rx="14" fill="white" style="fill:white;fill-opacity:1;"/>
<path d="M19.9475 8.8213C19.719 8.56241 19.3939 8.41399 19.0555 8.41399H17.8986C17.8406 7.59125 17.2819 7.70561 17.0644 7.70561C16.8348 7.70561 14 7.70561 14 7.70561C14 7.70561 11.1652 7.70561 10.9356 7.70561C10.718 7.70561 10.1592 7.59127 10.1012 8.41399H8.94434C8.60601 8.41399 8.2809 8.56245 8.05235 8.8213C7.77535 9.13511 7.65582 9.588 7.71456 10.0987C7.72544 10.3256 7.84002 11.4909 9.04568 12.3198C9.65841 12.7411 10.2473 12.9558 10.7831 13.0651C10.9005 13.0905 11.0193 13.1133 11.141 13.1311C11.1427 13.133 11.1443 13.1349 11.146 13.1367C13.6527 15.7746 13.3466 14.2486 13.3466 16.6666C13.3466 17.604 12.048 17.3005 12.048 18.0201C12.048 18.7396 11.0358 18.1474 11.1295 19.0011C11.1869 19.5244 12.7369 19.9167 14 19.9167C15.263 19.9167 16.8132 19.5243 16.8705 19.0011C16.9642 18.1474 15.952 18.7396 15.952 18.0201C15.952 17.3005 14.6534 17.604 14.6534 16.6666C14.6534 14.2485 14.3473 15.7746 16.854 13.1367C16.8574 13.1331 16.8606 13.1292 16.8641 13.1255C17.4883 13.0446 18.2042 12.8356 18.9543 12.3199C20.1599 11.491 20.2745 10.3256 20.2853 10.0987C20.3441 9.588 20.2245 9.13507 19.9475 8.8213ZM19.2962 9.99804L19.2917 10.0225L19.2923 10.0558C19.2899 10.1204 19.2429 10.915 18.3911 11.5007C18.1581 11.6609 17.9327 11.7823 17.7135 11.8766C17.6639 11.8967 17.6144 11.9168 17.5637 11.9343C17.863 11.0914 17.9116 10.1487 17.9125 9.40806H19.0555C19.0938 9.40806 19.1504 9.42041 19.2023 9.47913C19.2907 9.57929 19.325 9.76839 19.2962 9.99804ZM13.2989 12.5323C13.2053 12.6504 13.0667 12.7119 12.9269 12.7119C12.8236 12.7119 12.7196 12.6783 12.6324 12.6092C11.4418 11.6649 11.342 10.3686 11.342 9.22774C11.342 8.96575 11.5545 8.75335 11.8165 8.75335C12.0785 8.75335 12.2909 8.96575 12.2909 9.22774C12.2909 10.2288 12.3621 11.1837 13.222 11.8657C13.4273 12.0286 13.4617 12.327 13.2989 12.5323ZM9.60879 11.5007C8.7577 10.9156 8.70996 10.1219 8.70753 10.0559L8.70807 10.0333L8.70364 9.99802C8.67489 9.76841 8.70915 9.57926 8.7976 9.4791C8.84947 9.42039 8.90603 9.40803 8.94434 9.40803H10.0873C10.0881 10.0403 10.125 10.8196 10.3216 11.5585C10.3544 11.686 10.3907 11.8127 10.4334 11.9372C10.1685 11.837 9.89412 11.6969 9.60879 11.5007Z" fill="#29A356" style="fill:#29A356;fill:color(display-p3 0.1608 0.6392 0.3373);fill-opacity:1;"/>
</g>
<rect x="0.5" y="0.5" width="27" height="27" rx="13.5" stroke="#F0F0F0" style="stroke:#F0F0F0;stroke:color(display-p3 0.9401 0.9401 0.9401);stroke-opacity:1;"/>
<defs>
<clipPath id="clip0_571_533">
<rect width="28" height="28" rx="14" fill="white" style="fill:white;fill-opacity:1;"/>
</clipPath>
</defs>
</svg>
