<svg width="28" height="29" viewBox="0 0 28 29" fill="none" xmlns="http://www.w3.org/2000/svg">
<g clip-path="url(#clip0_571_476)">
<rect y="0.5" width="28" height="28" rx="14" fill="white" style="fill:white;fill-opacity:1;"/>
<path d="M20.2343 18.1909L15.3328 9.16298C15.2031 8.92456 15.0114 8.72553 14.7781 8.58686C14.5447 8.44819 14.2783 8.375 14.0068 8.375C13.7354 8.375 13.469 8.44819 13.2356 8.58686C13.0022 8.72553 12.8106 8.92456 12.6808 9.16298L7.77436 18.1909C7.64593 18.4214 7.58017 18.6815 7.58363 18.9454C7.58708 19.2092 7.65962 19.4676 7.79403 19.6946C7.92844 19.9217 8.12002 20.1096 8.34967 20.2395C8.57932 20.3695 8.83902 20.437 9.10288 20.4353H18.9058C19.1675 20.4355 19.4247 20.3677 19.6523 20.2386C19.8799 20.1094 20.07 19.9233 20.204 19.6985C20.338 19.4736 20.4112 19.2179 20.4165 18.9562C20.4218 18.6946 20.359 18.436 20.2343 18.206V18.1909ZM13.2545 11.7496C13.2545 11.5494 13.334 11.3574 13.4756 11.2158C13.6172 11.0743 13.8092 10.9947 14.0094 10.9947C14.2095 10.9947 14.4015 11.0743 14.5431 11.2158C14.6847 11.3574 14.7642 11.5494 14.7642 11.7496V15.2168C14.7642 15.417 14.6847 15.609 14.5431 15.7506C14.4015 15.8921 14.2095 15.9717 14.0094 15.9717C13.8092 15.9717 13.6172 15.8921 13.4756 15.7506C13.334 15.609 13.2545 15.417 13.2545 15.2168V11.7496ZM14.0295 18.5482C13.8583 18.5482 13.6909 18.4974 13.5486 18.4023C13.4063 18.3072 13.2953 18.172 13.2298 18.0139C13.1643 17.8557 13.1472 17.6817 13.1806 17.5138C13.214 17.3459 13.2964 17.1916 13.4174 17.0706C13.5385 16.9495 13.6927 16.8671 13.8606 16.8337C14.0285 16.8003 14.2026 16.8175 14.3607 16.883C14.5189 16.9485 14.6541 17.0594 14.7492 17.2018C14.8443 17.3441 14.895 17.5114 14.895 17.6826C14.895 17.9122 14.8038 18.1323 14.6415 18.2947C14.4792 18.457 14.259 18.5482 14.0295 18.5482Z" fill="#E82727" style="fill:#E82727;fill:color(display-p3 0.9091 0.1548 0.1548);fill-opacity:1;"/>
</g>
<rect x="0.5" y="1" width="27" height="27" rx="13.5" stroke="#F0F0F0" style="stroke:#F0F0F0;stroke:color(display-p3 0.9401 0.9401 0.9401);stroke-opacity:1;"/>
<defs>
<clipPath id="clip0_571_476">
<rect y="0.5" width="28" height="28" rx="14" fill="white" style="fill:white;fill-opacity:1;"/>
</clipPath>
</defs>
</svg>
