<svg width="12" height="14" viewBox="0 0 12 14" fill="none" xmlns="http://www.w3.org/2000/svg">
<path d="M6 0.958984C9.31371 0.958984 12 3.68005 12 7.03613C11.9998 10.392 9.31357 13.1123 6 13.1123C2.68643 13.1123 0.000225432 10.392 0 7.03613C0 3.68005 2.68629 0.958984 6 0.958984ZM9.75781 4.33496C9.48651 4.06718 9.04919 4.06972 8.78125 4.34082L4.77246 8.40039L3.21875 6.82715C2.95092 6.55589 2.51359 6.55272 2.24219 6.82031C1.97085 7.08823 1.9685 7.52549 2.23633 7.79688L4.28125 9.86914C4.41097 10.0004 4.58889 10.0742 4.77344 10.0742C4.95776 10.074 5.13512 10.0003 5.26465 9.86914L9.76465 5.31152C10.0322 5.04021 10.0288 4.60284 9.75781 4.33496Z" fill="#6EC063" style="fill:#6EC063;fill:color(display-p3 0.4305 0.7548 0.3876);fill-opacity:1;"/>
</svg>
