<svg width="12" height="12" viewBox="0 0 12 12" fill="none" xmlns="http://www.w3.org/2000/svg">
<path d="M6 0C9.31353 9.509e-05 12 2.68645 12 6C11.9999 9.31347 9.31347 11.9999 6 12C2.68645 12 9.50923e-05 9.31353 0 6C0 2.68639 2.68639 0 6 0ZM8.93555 3.0625C8.66927 2.79699 8.23771 2.79659 7.97168 3.0625L5.99902 5.03418L4.02734 3.0625C3.76106 2.79658 3.32865 2.79635 3.0625 3.0625C2.79635 3.32865 2.79658 3.76106 3.0625 4.02734L5.03418 5.99902L3.0625 7.97168C2.79659 8.23771 2.79699 8.66927 3.0625 8.93555C3.32876 9.20181 3.76109 9.20181 4.02734 8.93555L5.99902 6.96289L7.97168 8.93555C8.23794 9.20181 8.66929 9.20181 8.93555 8.93555C9.20181 8.66929 9.20181 8.23794 8.93555 7.97168L6.96289 5.99902L8.93555 4.02734C9.20181 3.76109 9.20181 3.32876 8.93555 3.0625Z" fill="#CA5454" style="fill:#CA5454;fill:color(display-p3 0.7938 0.3309 0.3309);fill-opacity:1;"/>
</svg>
