<svg width="28" height="29" viewBox="0 0 28 29" fill="none" xmlns="http://www.w3.org/2000/svg">
<g clip-path="url(#clip0_571_501)">
<rect y="0.5" width="28" height="28" rx="14" fill="white" style="fill:white;fill-opacity:1;"/>
<path fill-rule="evenodd" clip-rule="evenodd" d="M14.0003 7.5C14.3869 7.5 14.7003 7.8134 14.7003 8.19999V8.89998C14.7003 9.28657 14.3869 9.59997 14.0003 9.59997C13.6137 9.59997 13.3003 9.28657 13.3003 8.89998V8.19999C13.3003 7.8134 13.6137 7.5 14.0003 7.5Z" fill="#7030A0" style="fill:#7030A0;fill:color(display-p3 0.4392 0.1882 0.6275);fill-opacity:1;"/>
<path fill-rule="evenodd" clip-rule="evenodd" d="M19.3949 9.10492C19.6683 9.37829 19.6683 9.82149 19.3949 10.0949L18.6949 10.7949C18.4216 11.0682 17.9784 11.0682 17.705 10.7949C17.4317 10.5215 17.4317 10.0783 17.705 9.80491L18.405 9.10492C18.6783 8.83156 19.1216 8.83156 19.3949 9.10492Z" fill="#7030A0" style="fill:#7030A0;fill:color(display-p3 0.4392 0.1882 0.6275);fill-opacity:1;"/>
<path fill-rule="evenodd" clip-rule="evenodd" d="M18.8999 14.5003C18.8999 14.1137 19.2133 13.8003 19.5999 13.8003H20.2999C20.6865 13.8003 20.9999 14.1137 20.9999 14.5003C20.9999 14.8869 20.6865 15.2003 20.2999 15.2003H19.5999C19.2133 15.2003 18.8999 14.8869 18.8999 14.5003Z" fill="#7030A0" style="fill:#7030A0;fill:color(display-p3 0.4392 0.1882 0.6275);fill-opacity:1;"/>
<path fill-rule="evenodd" clip-rule="evenodd" d="M7 14.5003C7 14.1137 7.3134 13.8003 7.69999 13.8003H8.39998C8.78657 13.8003 9.09997 14.1137 9.09997 14.5003C9.09997 14.8869 8.78657 15.2003 8.39998 15.2003H7.69999C7.3134 15.2003 7 14.8869 7 14.5003Z" fill="#7030A0" style="fill:#7030A0;fill:color(display-p3 0.4392 0.1882 0.6275);fill-opacity:1;"/>
<path fill-rule="evenodd" clip-rule="evenodd" d="M8.60492 9.10492C8.87829 8.83156 9.32149 8.83156 9.59486 9.10492L10.2949 9.80491C10.5682 10.0783 10.5682 10.5215 10.2949 10.7949C10.0215 11.0682 9.57828 11.0682 9.30491 10.7949L8.60492 10.0949C8.33156 9.82149 8.33156 9.37829 8.60492 9.10492Z" fill="#7030A0" style="fill:#7030A0;fill:color(display-p3 0.4392 0.1882 0.6275);fill-opacity:1;"/>
<path fill-rule="evenodd" clip-rule="evenodd" d="M14.0002 10.3003C11.6807 10.3003 9.80029 12.1807 9.80029 14.5002C9.80029 15.6435 10.258 16.6812 10.9986 17.4378C11.1861 17.6294 11.2871 17.8054 11.3183 17.9613L11.6887 19.8122C11.8851 20.7937 12.7469 21.5001 13.7479 21.5001H14.2526C15.2536 21.5001 16.1154 20.7937 16.3117 19.8122L16.6821 17.9613C16.7133 17.8054 16.8144 17.6294 17.0019 17.4378C17.7424 16.6812 18.2002 15.6435 18.2002 14.5002C18.2002 12.1807 16.3198 10.3003 14.0002 10.3003ZM13.3002 17.3002C12.9136 17.3002 12.6003 17.6136 12.6003 18.0002C12.6003 18.3868 12.9136 18.7002 13.3002 18.7002H14.7002C15.0868 18.7002 15.4002 18.3868 15.4002 18.0002C15.4002 17.6136 15.0868 17.3002 14.7002 17.3002H13.3002Z" fill="#7030A0" style="fill:#7030A0;fill:color(display-p3 0.4392 0.1882 0.6275);fill-opacity:1;"/>
</g>
<rect x="0.5" y="1" width="27" height="27" rx="13.5" stroke="#F0F0F0" style="stroke:#F0F0F0;stroke:color(display-p3 0.9401 0.9401 0.9401);stroke-opacity:1;"/>
<defs>
<clipPath id="clip0_571_501">
<rect y="0.5" width="28" height="28" rx="14" fill="white" style="fill:white;fill-opacity:1;"/>
</clipPath>
</defs>
</svg>
