<svg width="49" height="48" viewBox="0 0 49 48" fill="none" xmlns="http://www.w3.org/2000/svg">
<path d="M28.5969 25.779H26.8561C26.6187 24.7776 26.2208 23.8226 25.6781 22.9485L26.9154 21.7113C27.0558 21.5665 27.0558 21.3365 26.9154 21.1932L24.2918 18.5696C24.1485 18.4293 23.9185 18.4293 23.7738 18.5696L22.5365 19.8069C21.6624 19.2642 20.7074 18.8662 19.706 18.6289V16.8881C19.7074 16.7897 19.6683 16.6942 19.5989 16.6247C19.5294 16.5552 19.4339 16.5162 19.3355 16.5176H15.6309C15.5325 16.5162 15.437 16.5552 15.3676 16.6247C15.2981 16.6942 15.259 16.7897 15.2605 16.8881V18.6289C14.2591 18.8663 13.304 19.2642 12.43 19.8069L11.1927 18.5696C11.048 18.4293 10.8179 18.4293 10.6747 18.5696L8.05107 21.1932C7.9107 21.3365 7.9107 21.5666 8.05107 21.7113L9.28832 22.9485C8.74568 23.8226 8.34769 24.7776 8.11038 25.779H6.36952C6.27112 25.7776 6.17561 25.8167 6.10615 25.8861C6.03669 25.9556 5.99761 26.0511 5.99906 26.1495V29.8541C5.99762 29.9525 6.03669 30.048 6.10615 30.1174C6.17561 30.1869 6.27112 30.226 6.36952 30.2245H8.11038C8.3477 31.2259 8.74564 32.181 9.28832 33.055L8.05107 34.2923C7.9107 34.437 7.9107 34.6671 8.05107 34.8104L10.6747 37.4339C10.8179 37.5743 11.048 37.5743 11.1927 37.4339L12.43 36.1967C13.304 36.7393 14.2591 37.1373 15.2605 37.3746V39.1155C15.259 39.2139 15.2981 39.3094 15.3676 39.3789C15.437 39.4483 15.5325 39.4874 15.6309 39.4859H19.3355C19.4339 39.4874 19.5294 39.4483 19.5989 39.3789C19.6683 39.3094 19.7074 39.2139 19.706 39.1155V37.3746C20.7074 37.1373 21.6624 36.7394 22.5365 36.1967L23.7738 37.4339C23.9185 37.5743 24.1485 37.5743 24.2918 37.4339L26.9154 34.8104C27.0558 34.6671 27.0558 34.437 26.9154 34.2923L25.6781 33.055C26.2208 32.181 26.6188 31.2259 26.8561 30.2245H28.5969C28.6953 30.226 28.7908 30.1869 28.8603 30.1174C28.9298 30.048 28.9688 29.9525 28.9674 29.8541V26.1495C28.9688 26.0511 28.9298 25.9556 28.8603 25.8861C28.7908 25.8167 28.6953 25.7776 28.5969 25.779ZM17.4832 33.5587C16.01 33.5587 14.5962 32.9726 13.5545 31.9307C12.5128 30.8888 11.9265 29.4749 11.9265 28.002C11.9265 26.529 12.5126 25.115 13.5545 24.0733C14.5964 23.0315 16.0102 22.4453 17.4832 22.4453C18.9562 22.4453 20.3702 23.0313 21.4119 24.0733C22.4536 25.1152 23.0399 26.529 23.0399 28.002C23.0399 29.4749 22.4538 30.8889 21.4119 31.9307C20.37 32.9724 18.9562 33.5587 17.4832 33.5587Z" fill="#E43F71" style="fill:#E43F71;fill:color(display-p3 0.8941 0.2471 0.4431);fill-opacity:1;"/>
<path d="M41.0263 8H30.1255C28.4862 8 27.1523 9.34065 27.1523 10.9884V17.7117C27.1523 19.3595 28.4862 20.7001 30.1255 20.7001H34.2165L39.4954 23.6478C39.5867 23.6986 39.6872 23.724 39.7877 23.724C39.7912 23.7234 39.7947 23.7234 39.7997 23.724C40.132 23.724 40.4014 23.4535 40.4014 23.1192C40.4014 23.0389 40.3858 22.9615 40.3573 22.8912L39.9469 20.7001H41.0263C42.6656 20.7001 43.9995 19.3595 43.9995 17.7117V10.9884C43.9995 9.34065 42.6656 8 41.0263 8Z" fill="#EC799B" style="fill:#EC799B;fill:color(display-p3 0.9255 0.4745 0.6078);fill-opacity:1;"/>
</svg>
