<svg width="49" height="48" viewBox="0 0 49 48" fill="none" xmlns="http://www.w3.org/2000/svg">
<path fill-rule="evenodd" clip-rule="evenodd" d="M32.6808 40.7911V16.8767C32.6808 15.8048 32.6831 15.112 32.7517 14.6015C32.8161 14.1228 32.92 13.9727 33.0041 13.8887C33.0881 13.8047 33.2381 13.7008 33.7168 13.6364C34.2273 13.5678 34.9202 13.5654 35.992 13.5654C37.0638 13.5654 37.7567 13.5678 38.2672 13.6364C38.7459 13.7008 38.8959 13.8047 38.9799 13.8887C39.064 13.9727 39.1679 14.1228 39.2322 14.6015C39.3009 15.112 39.3032 15.8048 39.3032 16.8767V40.7911H32.6808Z" fill="#E43F71" style="fill:#E43F71;fill:color(display-p3 0.8941 0.2471 0.4431);fill-opacity:1;"/>
<path d="M24.1212 23.5002C24.1212 22.8907 24.6153 22.3965 25.2249 22.3965H29.6399C30.2495 22.3965 30.7437 22.8907 30.7437 23.5002V40.7922H24.1212V23.5002Z" fill="#E43F71" style="fill:#E43F71;fill:color(display-p3 0.8941 0.2471 0.4431);fill-opacity:1;"/>
<path d="M15.2921 30.8581C15.2921 30.2486 15.7863 29.7544 16.3958 29.7544H20.8108C21.4204 29.7544 21.9146 30.2486 21.9146 30.8581V40.7918H15.2921V30.8581Z" fill="#E43F71" style="fill:#E43F71;fill:color(display-p3 0.8941 0.2471 0.4431);fill-opacity:1;"/>
<path d="M42.1502 40.7925C42.7597 40.7925 43.2539 41.2867 43.2539 41.8962C43.2539 42.5058 42.7597 43 42.1502 43H12.717C12.1074 43 11.6132 42.5058 11.6132 41.8962C11.6132 41.2867 12.1074 40.7925 12.717 40.7925H13.0849H15.2924H21.9148H24.1223H30.7448H32.9523H39.5748H41.7822H42.1502Z" fill="#E43F71" style="fill:#E43F71;fill:color(display-p3 0.8941 0.2471 0.4431);fill-opacity:1;"/>
<path fill-rule="evenodd" clip-rule="evenodd" d="M27.5121 7.40226L21.0855 5.08007C20.6878 4.94973 20.2548 4.97938 19.8785 5.16274C19.5022 5.3461 19.2121 5.66877 19.0696 6.06237C18.9271 6.45597 18.9435 6.88959 19.1152 7.27135C19.2869 7.6531 19.6005 7.95301 19.9896 8.10751L24.9028 9.89264L23.1194 14.7892C22.9744 15.1905 22.9947 15.633 23.176 16.0193C23.3572 16.4056 23.6845 16.704 24.0858 16.849C24.4871 16.994 24.9296 16.9736 25.3159 16.7924C25.7021 16.6112 26.0006 16.2839 26.1456 15.8826L28.4766 9.46137C28.621 9.06037 28.6006 8.6185 28.4198 8.23255C28.239 7.84659 27.9126 7.54803 27.5121 7.40226ZM9.48746 10.5128C9.08599 10.3676 8.64332 10.3878 8.25673 10.5689C7.87014 10.75 7.57126 11.0772 7.42575 11.4785L5.09592 17.9023C4.9508 18.3038 4.971 18.7465 5.15208 19.1331C5.33317 19.5196 5.66032 19.8185 6.06166 19.964L12.4858 22.281C12.8869 22.4265 13.3294 22.4067 13.7159 22.226C13.9073 22.1365 14.0792 22.0101 14.2218 21.8542C14.3643 21.6983 14.4748 21.5158 14.5468 21.3172C14.6189 21.1186 14.6511 20.9077 14.6416 20.6967C14.6322 20.4856 14.5813 20.2785 14.4918 20.0871C14.4023 19.8957 14.2759 19.7238 14.12 19.5813C13.9641 19.4387 13.7816 19.3282 13.583 19.2562L8.67952 17.4919L10.4532 12.5745C10.5983 12.173 10.5781 11.7303 10.397 11.3438C10.216 10.9572 9.8888 10.6583 9.48746 10.5128Z" fill="#EC799B" style="fill:#EC799B;fill:color(display-p3 0.9255 0.4745 0.6078);fill-opacity:1;"/>
</svg>
