<svg width="48" height="48" viewBox="0 0 48 48" fill="none" xmlns="http://www.w3.org/2000/svg">
<path d="M14.8798 31.8389L15.9248 32.4094C16.1148 32.5996 16.2098 32.5996 16.3998 32.5996C16.5898 32.5996 16.6848 32.5996 16.8748 32.5045L17.9198 31.934C23.6197 28.6061 27.7996 26.229 27.7996 18.4321V10.7304C27.7996 10.3501 27.5146 9.96973 27.1346 9.87465L16.6848 6.07131C16.4948 5.97623 16.2098 5.97623 16.0198 6.07131L5.56999 9.87465C5.285 9.96973 5 10.3501 5 10.7304V18.3371C5 26.229 9.17993 28.6061 14.8798 31.8389ZM12.5999 18.5272H15.4498V15.6747C15.4498 15.1993 15.9248 14.7239 16.3998 14.7239C16.8748 14.7239 17.3498 15.1993 17.3498 15.6747V18.5272H20.1998C20.6747 18.5272 21.1497 19.0026 21.1497 19.4781C21.1497 19.9535 20.6747 20.4289 20.1998 20.4289H17.3498V23.2814C17.3498 23.7568 16.8748 24.2322 16.3998 24.2322C15.9248 24.2322 15.4498 23.7568 15.4498 23.2814V20.4289H12.5999C12.1249 20.4289 11.6499 19.9535 11.6499 19.4781C11.6499 19.0026 12.1249 18.5272 12.5999 18.5272Z" fill="#E43F71" style="fill:#E43F71;fill:color(display-p3 0.8941 0.2471 0.4431);fill-opacity:1;"/>
<path d="M43 38.9229C43 40.555 41.6762 41.8789 40.0439 41.8789H28.2227C26.5904 41.8789 25.2666 40.555 25.2666 38.9229V32.2637L33.7793 35.3594C34.0076 35.4424 34.2581 35.4423 34.4863 35.3594L43 32.2637V38.9229ZM35.5283 24.999C36.9156 24.999 38.0408 26.1235 38.041 27.5107V28.2324H41.5215C42.3375 28.2324 42.9998 28.894 43 29.71V30.6914L34.1328 33.916L25.2666 30.6914V29.71C25.2668 28.8942 25.9283 28.2326 26.7441 28.2324H30.2256V27.5107C30.2258 26.1236 31.3502 24.9992 32.7373 24.999H35.5283ZM32.7373 27.0674C32.4928 27.0676 32.2941 27.2662 32.2939 27.5107V28.2324H35.9717V27.5107C35.9715 27.2661 35.773 27.0674 35.5283 27.0674H32.7373Z" fill="#EC799B" style="fill:#EC799B;fill:color(display-p3 0.9255 0.4745 0.6078);fill-opacity:1;"/>
</svg>
