<svg width="48" height="48" viewBox="0 0 48 48" fill="none" xmlns="http://www.w3.org/2000/svg">
<path d="M34.5633 23.9385C29.9092 23.9385 26.1255 27.7221 26.1255 32.3762C26.1255 37.0303 29.9092 40.814 34.5633 40.814C39.2173 40.814 43.001 37.0303 43.001 32.3762C43.001 27.7221 39.2173 23.9385 34.5633 23.9385ZM37.8851 34.7033C37.7252 34.9342 37.4765 35.0586 37.21 35.0586C37.0502 35.0586 36.8725 35.0053 36.7304 34.9165L34.0836 33.0513C33.8705 32.8914 33.7284 32.6427 33.7284 32.3762V27.9175C33.7284 27.4557 34.1014 27.0827 34.5633 27.0827C35.0251 27.0827 35.3981 27.4557 35.3981 27.9175V31.9499L37.6897 33.5664C38.0627 33.8151 38.1515 34.3303 37.8851 34.7033Z" fill="#EC799B" style="fill:#EC799B;fill:color(display-p3 0.9255 0.4745 0.6078);fill-opacity:1;"/>
<path fill-rule="evenodd" clip-rule="evenodd" d="M12.8756 26.524C10.3268 25.4202 8.33878 23.1352 7.72404 20.2112C6.71449 15.4094 9.79351 10.691 14.5954 9.68147C19.3972 8.67192 24.1156 11.7509 25.1251 16.5528C25.7392 19.4738 24.8418 22.361 22.964 24.403L12.8756 26.524ZM13.2295 20.1613L15.6497 21.3841C16.0513 21.5863 16.5387 21.4405 16.7643 21.0524L19.6211 16.1254C19.8571 15.72 19.7179 15.202 19.3139 14.9678C18.91 14.7337 18.3905 14.871 18.1576 15.2758L15.7007 19.512L13.9933 18.6499C13.5761 18.4402 13.0662 18.6079 12.8553 19.0244C12.6445 19.4418 12.8122 19.9516 13.2295 20.1613ZM22.4106 26.251C22.6153 27.2452 22.8834 28.5202 23.0951 29.5271C23.3837 30.8995 22.5043 32.2471 21.1318 32.5357L17.8152 33.233C16.4428 33.5215 15.0952 32.6421 14.8066 31.2697L14.118 27.9944L22.4106 26.251Z" fill="#E43F71" style="fill:#E43F71;fill:color(display-p3 0.8941 0.2471 0.4431);fill-opacity:1;"/>
</svg>
