<svg width="28" height="28" viewBox="0 0 28 28" fill="none" xmlns="http://www.w3.org/2000/svg">
<rect width="28" height="28" rx="14" fill="white" style="fill:white;fill-opacity:1;"/>
<path d="M14 3.5C8.20039 3.5 3.5 8.20039 3.5 14C3.5 19.7996 8.20039 24.5 14 24.5C19.7996 24.5 24.5 19.7996 24.5 14C24.5 8.20039 19.7996 3.5 14 3.5ZM11.0633 18.3928H9.0166V11.8426H11.0633V18.3928ZM9.98457 11.0223H9.96816C9.22578 11.0223 8.7459 10.5219 8.7459 9.88613C8.7459 9.23809 9.24219 8.75 9.99687 8.75C10.7516 8.75 11.215 9.23809 11.2314 9.88613C11.2355 10.5178 10.7557 11.0223 9.98457 11.0223ZM19.25 18.3928H16.9285V15.0049C16.9285 14.1189 16.5676 13.5119 15.7678 13.5119C15.1566 13.5119 14.8162 13.9221 14.6604 14.3158C14.6029 14.4553 14.6111 14.6521 14.6111 14.8531V18.3928H12.3102C12.3102 18.3928 12.3389 12.3881 12.3102 11.8426H14.6111V12.8721C14.7465 12.4209 15.4807 11.7811 16.6537 11.7811C18.1098 11.7811 19.25 12.7244 19.25 14.7506V18.3928Z" fill="#0A66C2" style="fill:#0A66C2;fill:color(display-p3 0.0392 0.4000 0.7608);fill-opacity:1;"/>
</svg>
