<svg width="48" height="48" viewBox="0 0 48 48" fill="none" xmlns="http://www.w3.org/2000/svg">
<path fill-rule="evenodd" clip-rule="evenodd" d="M27.1024 40H8.65939V36.0839H27.1024V40ZM11.3445 35.2971C11.3421 34.3058 11.2828 33.3155 11.1668 32.331L14.8816 28.9269C14.959 28.8555 15.0057 28.7569 15.0117 28.6517L15.0981 26.2542C15.1007 26.1952 15.0899 26.1365 15.0665 26.0823C15.0431 26.0281 15.0077 25.9799 14.9631 25.9413C14.9184 25.9027 14.8655 25.8747 14.8085 25.8595C14.7515 25.8442 14.6918 25.842 14.6338 25.8532C13.5255 26.0601 12.5659 25.6754 11.699 24.6702C11.6619 24.6258 11.6151 24.5904 11.5623 24.5666C11.5094 24.5429 11.4519 24.5315 11.394 24.5333L8.14952 24.6101C7.74383 22.8636 8.16197 21.6082 9.4249 20.778L14.5982 18.7157C14.6714 18.6867 14.7343 18.6364 14.7786 18.5713C14.823 18.5062 14.8469 18.4293 14.8471 18.3506V14.3047C17.5778 14.9323 19.0206 16.3527 19.2496 18.6354C19.2554 18.6978 19.2761 18.7578 19.3101 18.8105C19.3441 18.8631 19.3903 18.9067 19.4448 18.9376C24.3949 21.7685 24.4663 27.4283 24.5342 32.9006C24.5435 33.7305 24.5527 34.5212 24.5808 35.2971H11.3445ZM21.3627 19.3284C23.2852 20.9749 24.2573 23.163 24.7589 25.5481C25.787 25.9263 26.9059 25.9819 27.9664 25.7074C29.0268 25.433 29.9783 24.8416 30.6938 24.0121C31.4092 23.1827 31.8547 22.1547 31.9705 21.0655C32.0864 19.9762 31.8672 18.8776 31.3423 17.9162C30.8173 16.9548 30.0115 16.1764 29.0325 15.685C28.0536 15.1936 26.948 15.0126 25.8634 15.166C24.7788 15.3195 23.7668 15.8002 22.9627 16.5439C22.1585 17.2877 21.6003 18.259 21.3627 19.3284ZM34.0713 24.5429C34.0321 24.4857 34.0089 24.4191 34.004 24.3499C33.999 24.2808 34.0126 24.2115 34.0432 24.1493C34.2017 23.8296 34.3383 23.4995 34.4521 23.1612C34.4749 23.096 34.5143 23.0377 34.5664 22.9923C34.6185 22.9469 34.6816 22.9158 34.7493 22.902L39.1141 22.0444V18.944L34.7493 18.09C34.6815 18.0761 34.6185 18.0449 34.5663 17.9993C34.5142 17.9537 34.4749 17.8954 34.4521 17.83C34.3376 17.4921 34.201 17.162 34.0432 16.842C34.0126 16.7797 33.999 16.7105 34.004 16.6414C34.0089 16.5722 34.0321 16.5056 34.0713 16.4484L36.5509 12.7559L34.3589 10.5639L30.6658 13.045C30.6084 13.0838 30.5418 13.1067 30.4727 13.1113C30.4036 13.1159 30.3346 13.1021 30.2725 13.0713C29.9526 12.9133 29.6227 12.7765 29.2848 12.6617C29.2194 12.6392 29.161 12.6 29.1154 12.548C29.0698 12.496 29.0386 12.4329 29.0249 12.3652L28.1705 8H25.0683L24.2149 12.3652C24.2013 12.433 24.1701 12.496 24.1245 12.5481C24.0789 12.6001 24.0205 12.6393 23.955 12.6617C23.6173 12.7768 23.2874 12.9136 22.9673 13.0713C22.9048 13.102 22.8353 13.1157 22.7657 13.1111C22.6962 13.1064 22.6292 13.0837 22.5712 13.045L18.8798 10.5639L16.6878 12.7559L18.1709 14.9639C18.6847 15.381 19.1113 15.8953 19.4263 16.4774C19.7413 17.0595 19.9385 17.6979 20.0066 18.3563C20.2452 18.4985 20.4709 18.646 20.6878 18.7989C21.0238 17.6266 21.6999 16.5801 22.6305 15.7919C23.5611 15.0037 24.7045 14.509 25.9162 14.3705C27.1279 14.232 28.3534 14.4559 29.4379 15.0138C30.5224 15.5717 31.4171 16.4386 32.009 17.5049C32.6009 18.5712 32.8634 19.789 32.7633 21.0045C32.6631 22.2199 32.2049 23.3784 31.4465 24.3335C30.6881 25.2886 29.6635 25.9973 28.5024 26.3702C27.3412 26.7431 26.0955 26.7634 24.9229 26.4284C25.2107 28.5703 25.3432 30.7301 25.3193 32.891V32.9913H28.1705L29.0238 28.6268C29.0375 28.559 29.0687 28.4958 29.1143 28.4437C29.1599 28.3915 29.2183 28.3522 29.2837 28.3296C29.6216 28.2147 29.9515 28.0779 30.2715 27.92C30.3336 27.8895 30.4026 27.8758 30.4716 27.8804C30.5406 27.8849 30.6072 27.9075 30.6647 27.946L34.3589 30.4274L36.5509 28.2361L34.0713 24.5429Z" fill="#E43F71"/>
</svg>
