<svg width="48" height="48" viewBox="0 0 48 48" fill="none" xmlns="http://www.w3.org/2000/svg">
<path fill-rule="evenodd" clip-rule="evenodd" d="M25.544 29.0883C24.7258 29.5147 23.8021 29.7634 22.8408 29.7634C19.6402 29.7634 17.0801 27.1671 17.0801 24.0027C17.0801 20.8384 19.6764 18.2421 22.8408 18.2421C24.6897 18.2421 26.3261 19.095 27.3568 20.4466C27.3929 20.4827 27.3929 20.4827 27.4276 20.4827H34.5763H34.6124L37.0309 19.0964C37.6004 18.7769 37.8129 17.9934 37.4934 17.4253L35.8932 14.6164C35.5737 14.0469 34.7902 13.8344 34.222 14.1538L31.8036 15.5402C31.234 15.8597 30.5589 15.825 30.0255 15.3985C29.0294 14.5803 27.9279 13.9052 26.6832 13.4787C26.079 13.2648 25.6525 12.6967 25.6525 12.0201L25.6511 9.20853C25.6511 8.53343 25.0815 8 24.4426 8H21.2059C20.5308 8 19.9973 8.56956 19.9973 9.20853V12.0174C19.9973 12.6925 19.6056 13.2259 18.9666 13.476C17.7581 13.9385 16.619 14.5789 15.6244 15.3957C15.1271 15.8222 14.4158 15.893 13.8463 15.5374L11.4278 14.1511C10.8582 13.8316 10.0762 14.0094 9.75667 14.6137L8.15638 17.4225C7.83688 17.992 8.01469 18.7741 8.61897 19.0936L11.0375 20.4799C11.607 20.7994 11.8904 21.4398 11.7848 22.0802C11.6779 22.7206 11.607 23.361 11.607 24C11.607 24.6404 11.6779 25.3155 11.7848 25.9198C11.8918 26.5602 11.607 27.2006 11.0375 27.5201L8.61897 28.9064C8.04941 29.2259 7.8369 30.0094 8.15638 30.5775L9.75667 33.3863C10.0762 33.9559 10.8597 34.1684 11.4278 33.8489L13.8463 32.4626C14.4158 32.1431 15.0909 32.1778 15.6244 32.6043C16.6204 33.4225 17.7219 34.0976 18.9666 34.524C19.5709 34.738 19.9973 35.3061 19.9973 35.9827V38.7915C19.9973 39.4666 20.5669 40 21.2059 40H24.4426C25.1177 40 25.6511 39.4304 25.6511 38.7915V29.1898C25.6872 29.1231 25.5802 29.0522 25.544 29.0883ZM38.1336 34.3863C39.0227 34.3863 39.7701 35.0975 39.7701 36.0227C39.7701 36.9479 39.0588 37.6591 38.1336 37.6591C37.4932 37.6591 36.9251 37.3035 36.675 36.7339C36.675 36.6978 36.6389 36.6978 36.6042 36.6978H32.7994C32.6216 36.6978 32.4799 36.627 32.3368 36.52L29.3849 33.6042C29.3849 33.6042 29.3488 33.5681 29.3141 33.5681H27.8555C27.0026 33.5681 27.0026 32.2873 27.8555 32.2873H29.5974C29.8114 32.2873 29.9531 32.3582 30.0947 32.5012L33.0105 35.3823C33.0105 35.3823 33.0466 35.4184 33.0814 35.4184H36.6014C36.6375 35.4184 36.6723 35.3823 36.6723 35.3823C36.9237 34.778 37.4932 34.3863 38.1336 34.3863ZM38.1336 35.6671C38.3114 35.6671 38.4893 35.8088 38.4893 36.0227C38.4893 36.2366 38.3476 36.3783 38.1336 36.3783C37.9558 36.3783 37.778 36.2366 37.778 36.0227C37.778 35.8088 37.9197 35.6671 38.1336 35.6671ZM38.1336 27.9142C39.0227 27.9142 39.7701 28.6255 39.7701 29.5506C39.7701 30.4397 39.0588 31.1871 38.1336 31.1871C37.4932 31.1871 36.9251 30.8314 36.675 30.2619C36.675 30.2258 36.6389 30.2258 36.6042 30.2258H32.4438C32.266 30.2258 32.1243 30.1549 31.9812 30.048L29.0293 27.1322C29.0293 27.1322 28.9932 27.0961 28.9585 27.0961H24.584C24.5479 27.0961 24.5131 27.1322 24.5131 27.1322C24.2284 27.7017 23.6602 28.0573 23.0545 28.0573C22.1655 28.0573 21.4181 27.3461 21.4181 26.4209C21.4181 25.5319 22.1294 24.7845 23.0545 24.7845C23.6949 24.7845 24.2631 25.1401 24.5131 25.7097C24.5131 25.7458 24.5493 25.7458 24.584 25.7458L29.207 25.7444C29.421 25.7444 29.5627 25.8153 29.7043 25.9584L32.6201 28.8394C32.6201 28.8394 32.6562 28.8755 32.691 28.8755H36.5665C36.6026 28.8755 36.6373 28.8394 36.6373 28.8394C36.9235 28.306 37.4932 27.9142 38.1336 27.9142ZM38.1336 29.195C38.3114 29.195 38.4893 29.3367 38.4893 29.5506C38.4893 29.7285 38.3476 29.9063 38.1336 29.9063C37.9558 29.9063 37.778 29.7646 37.778 29.5506C37.778 29.3728 37.9197 29.195 38.1336 29.195ZM23.0199 26.1C23.1977 26.1 23.3755 26.2417 23.3755 26.4557C23.3755 26.6696 23.2338 26.8113 23.0199 26.8113C22.842 26.8113 22.6642 26.6696 22.6642 26.4557C22.6642 26.2431 22.842 26.1 23.0199 26.1ZM38.1336 21.2643C39.0227 21.2643 39.7701 21.9756 39.7701 22.9008C39.7701 23.7898 39.0588 24.5372 38.1336 24.5372C37.4932 24.5372 36.9251 24.1816 36.675 23.612C36.675 23.5759 36.6389 23.5759 36.6042 23.5759H22.3087C22.2726 23.5759 22.2378 23.612 22.2378 23.612C21.9531 24.1816 21.3849 24.5372 20.7792 24.5372C19.8902 24.5372 19.1428 23.8259 19.1428 22.9008C19.1428 22.0117 19.8541 21.2643 20.7792 21.2643C21.4196 21.2643 21.9878 21.62 22.2378 22.1895C22.2378 22.2256 22.274 22.2256 22.3087 22.2256H36.5697C36.6058 22.2256 36.6405 22.1895 36.6405 22.1895C36.9239 21.62 37.4932 21.2643 38.1336 21.2643ZM38.1336 22.5438C38.3114 22.5438 38.4893 22.6854 38.4893 22.8994C38.4893 23.0772 38.3476 23.255 38.1336 23.255C37.9558 23.255 37.778 23.1133 37.778 22.8994C37.778 22.6868 37.9197 22.5438 38.1336 22.5438ZM20.7432 22.5438C20.921 22.5438 21.0988 22.6854 21.0988 22.8994C21.0988 23.0772 20.9571 23.255 20.7432 23.255C20.5293 23.255 20.3876 23.1133 20.3876 22.8994C20.3876 22.6868 20.5654 22.5438 20.7432 22.5438Z" fill="#E43F71"/>
</svg>
