<svg width="48" height="48" viewBox="0 0 48 48" fill="none" xmlns="http://www.w3.org/2000/svg">
<path d="M32.5671 19.8442H31.8388L31.8385 18.0884C31.8377 13.6207 28.2181 10.0011 23.7507 10C19.283 10.0011 15.6638 13.6207 15.6624 18.0884V19.8442H14.9338C14.418 19.8442 14 20.2623 14 20.778V37.0659C14 37.582 14.418 38 14.9338 38H32.5671C33.0831 38 33.5012 37.582 33.5012 37.0659V20.778C33.5012 20.2623 33.0831 19.8442 32.5671 19.8442ZM19.3987 18.0884C19.3995 16.8802 19.8825 15.8041 20.673 15.0106C21.4665 14.2199 22.5428 13.7369 23.7507 13.7355C24.9581 13.7366 26.0347 14.2196 26.8276 15.0106C27.6189 15.8041 28.1019 16.8802 28.1028 18.0884V19.8442H19.3987V18.0884ZM24.8886 28.5587L25.5657 33.9896C25.6203 34.4252 25.3053 34.782 24.8662 34.782H22.6349C22.1956 34.782 21.8809 34.4252 21.9355 33.9896L22.6128 28.5587C21.5958 28.1182 20.8844 27.1063 20.8844 25.9278C20.8844 24.3452 22.1679 23.062 23.7504 23.062C25.3333 23.062 26.6165 24.3452 26.6165 25.9278C26.6168 27.1066 25.9053 28.1182 24.8886 28.5587Z" fill="#E43F71"/>
</svg>
