<svg width="48" height="48" viewBox="0 0 48 48" fill="none" xmlns="http://www.w3.org/2000/svg">
<path fill-rule="evenodd" clip-rule="evenodd" d="M23.2913 11.2084C24.2989 11.4536 25.247 11.8518 26.1084 12.3759L27.6403 11.2057C28.2403 10.7479 29.0746 10.8034 29.6082 11.3371L30.5021 12.231C30.7391 12.468 30.8813 12.7633 30.9274 13.0707H26.7369C25.0899 13.0707 23.6773 14.1149 23.1261 15.5736C22.4462 15.2933 21.7012 15.1375 20.9211 15.1375C17.7274 15.1375 15.1391 17.7258 15.1391 20.9195C15.1391 22.645 15.8962 24.1945 17.0948 25.255C16.6276 25.7561 16.3404 26.4279 16.3404 27.1647V29.8071C16.1332 29.7001 15.9301 29.5863 15.731 29.4644L14.1991 30.6346C13.5991 31.0924 12.7648 31.0369 12.2312 30.5033L11.3373 29.6094C10.8037 29.0757 10.7481 28.2414 11.2059 27.6414L12.3761 26.111C11.8506 25.2495 11.4538 24.3001 11.2073 23.2925L9.29893 23.0365C8.54993 22.9362 8.00006 22.3064 8.00006 21.5521V20.2884C8.00006 19.5327 8.55129 18.9042 9.29893 18.804L11.2073 18.5494C11.4524 17.5417 11.8506 16.5937 12.3761 15.7309L11.2059 14.2004C10.7481 13.6004 10.8036 12.7661 11.3373 12.2325L12.2312 11.3386C12.7648 10.8049 13.5991 10.7494 14.1991 11.2072L15.731 12.3774C16.5937 11.8533 17.5405 11.455 18.5481 11.2099L18.8027 9.29887C18.903 8.54987 19.5328 8 20.2871 8H21.5508C22.3065 8 22.935 8.55122 23.0352 9.29887L23.2913 11.2084ZM19.1441 25.2168C18.0728 25.2168 17.1978 26.0931 17.1978 27.1631V38.0537C17.1978 39.125 18.0741 40 19.1441 40H22.8794V25.2167L19.1441 25.2168ZM26.7367 13.9278C25.087 13.9278 23.7367 15.2781 23.7367 16.9277V39.9999H37.0004C38.65 39.9999 40.0003 38.6496 40.0003 36.9999V16.9276C40.0003 15.278 38.65 13.9277 37.0004 13.9277L26.7367 13.9278ZM27.6049 34.0164H29.0676C29.6907 34.0164 30.1999 34.5256 30.1999 35.1486V36.6114C30.1999 37.2344 29.6906 37.7436 29.0676 37.7436H27.6049C26.9818 37.7436 26.4726 37.2344 26.4726 36.6114V35.1486C26.4726 34.5256 26.9819 34.0164 27.6049 34.0164ZM34.668 16.1843H36.1308C36.7538 16.1843 37.263 16.6935 37.263 17.3165V18.7793C37.263 19.4023 36.7538 19.9116 36.1308 19.9116H34.668C34.045 19.9116 33.5357 19.4023 33.5357 18.7793V17.3165C33.5357 16.6949 34.045 16.1843 34.668 16.1843ZM27.6049 16.1843C26.9818 16.1843 26.4726 16.6935 26.4726 17.3165V18.7793C26.4726 19.4023 26.9819 19.9116 27.6049 19.9116H29.0676C29.6907 19.9116 30.1999 19.4023 30.1999 18.7793V17.3165C30.1999 16.6935 29.6906 16.1843 29.0676 16.1843H27.6049ZM34.668 22.1289H36.1308C36.7538 22.1289 37.263 22.6381 37.263 23.2611V24.7239C37.263 25.3469 36.7538 25.8562 36.1308 25.8562L34.668 25.8548C34.045 25.8548 33.5357 25.3455 33.5357 24.7225V23.2612C33.5357 22.6381 34.045 22.1289 34.668 22.1289ZM27.6049 22.1289C26.9818 22.1289 26.4726 22.6381 26.4726 23.2611V24.7239C26.4726 25.3469 26.9819 25.8562 27.6049 25.8562H29.0676C29.6907 25.8562 30.1999 25.3469 30.1999 24.7239V23.2611C30.1999 22.6381 29.6906 22.1289 29.0676 22.1289H27.6049ZM34.668 28.0721H36.1308C36.7538 28.0721 37.263 28.5814 37.263 29.2044V30.6671C37.263 31.2902 36.7538 31.7994 36.1308 31.7994H34.668C34.045 31.7994 33.5357 31.2901 33.5357 30.6671V29.2044C33.5357 28.5813 34.045 28.0721 34.668 28.0721ZM27.6049 28.0721C26.9818 28.0721 26.4726 28.5814 26.4726 29.2044V30.6671C26.4726 31.2902 26.9819 31.7994 27.6049 31.7994H29.0676C29.6907 31.7994 30.1999 31.2901 30.1999 30.6671V29.2044C30.1999 28.5813 29.6906 28.0721 29.0676 28.0721H27.6049ZM34.668 34.0167H36.1308C36.7538 34.0167 37.263 34.526 37.263 35.149V36.6117C37.263 37.2348 36.7538 37.744 36.1308 37.744L34.668 37.7426C34.045 37.7426 33.5357 37.2334 33.5357 36.6104V35.1476C33.5357 34.5259 34.045 34.0167 34.668 34.0167ZM19.4745 28.5814C19.0451 28.5814 18.6944 28.9322 18.6944 29.3616V30.4884C18.6944 30.9178 19.0451 31.2686 19.4745 31.2686L20.6013 31.2672C21.0307 31.2672 21.3815 30.9164 21.3815 30.4871V29.3602C21.3815 28.9309 21.0307 28.5801 20.6013 28.5801L19.4745 28.5814ZM19.4745 33.9487H20.6013C21.0307 33.9487 21.3815 34.2995 21.3815 34.7289V35.8557C21.3815 36.2851 21.0307 36.6359 20.6013 36.6359H19.4745C19.0451 36.6359 18.6944 36.2851 18.6944 35.8557V34.7289C18.6944 34.3009 19.0465 33.9487 19.4745 33.9487Z" fill="#E43F71"/>
</svg>
