<svg width="48" height="48" viewBox="0 0 48 48" fill="none" xmlns="http://www.w3.org/2000/svg">
<path d="M35.041 19.1113V35.8438H39.0967C39.594 35.8438 39.9998 36.2453 40 36.7461C40 37.2471 39.5942 37.6494 39.0967 37.6494H8.90332C8.40593 37.6493 8 37.2435 8 36.7461C8.00022 36.2488 8.40597 35.8438 8.90332 35.8438H12.959V27.9053H19.1133V35.8438H20.9199V23.5059H27.0742V35.8438H28.8809V19.1113H35.041ZM22.5361 11.6729C22.6666 11.1895 23.1592 10.9033 23.6426 11.0303L26.5371 11.8066C27.0205 11.9336 27.3067 12.4311 27.1797 12.9092L26.4062 15.8096C26.2984 16.2115 25.9319 16.4775 25.5352 16.4775C25.4541 16.4775 25.3783 16.4688 25.3008 16.4512V16.4492C24.8176 16.3187 24.5315 15.8217 24.6582 15.3438L24.8701 14.5527L15.21 20.1396C15.0706 20.2208 14.9171 20.2617 14.7637 20.2617C14.4533 20.2617 14.1461 20.0988 13.9785 19.8096C13.7301 19.3774 13.8801 18.8254 14.3086 18.5732L23.9639 12.9863L23.1787 12.7783C22.6955 12.6479 22.4094 12.156 22.5361 11.6729Z" fill="#E43F71"/>
</svg>
