<svg width="48" height="48" viewBox="0 0 48 48" fill="none" xmlns="http://www.w3.org/2000/svg">
<path d="M22.0816 16.745C22.4576 16.7363 22.8286 16.8337 23.1534 17.0234L21.7228 17.8013C21.3666 18.025 21.1263 18.4875 20.9112 18.8375C20.4138 19.6275 19.9778 20.455 19.6053 21.31C19.4141 21.725 19.2625 22.155 19.1525 22.5975L19.6666 23.1913C20.0153 23.565 20.5053 23.775 21.0166 23.7688C21.4178 23.7462 21.8091 23.6262 22.1553 23.4213C22.7477 23.07 23.3004 22.6525 23.8016 22.1788C24.0853 21.935 24.3679 21.69 24.6266 21.425L31.06 25.9263C31.645 26.3437 32.2838 26.73 32.8375 27.1913C32.93 27.2662 33.0088 27.3575 33.0712 27.4588C33.2425 27.7287 33.2987 28.0563 33.2275 28.3688V28.3988L33.1887 28.5275C33.0625 28.865 32.805 29.1375 32.4762 29.2838C32.2662 29.3787 32.0287 29.3987 31.805 29.34C31.64 29.2813 31.4812 29.2037 31.3337 29.1088H31.335L30.6075 28.6525L28.4475 27.3438C28.125 27.1288 27.7862 26.94 27.435 26.78L29.9887 28.6263L30.9212 29.2863C31.0725 29.3875 31.2163 29.4975 31.3512 29.6188C31.49 29.7625 31.5875 29.9413 31.6337 30.1363C31.7062 30.4487 31.6425 30.7775 31.46 31.0413C31.2975 31.3 31.04 31.485 30.7437 31.5575H30.7162C30.5175 31.5962 30.3137 31.5763 30.1262 31.5013C29.9825 31.4325 29.845 31.3525 29.7137 31.2613L28.9525 30.7725L27.2 29.7L26.3275 29.175C26.1125 29.0413 25.8912 28.92 25.6637 28.81C25.9262 29.0525 26.2088 29.2725 26.5087 29.4663V29.4675L27.795 30.3913L28.535 30.9063C28.83 31.0775 29.1075 31.2778 29.3625 31.5041C29.4537 31.599 29.5263 31.7088 29.5775 31.83C29.6987 32.09 29.7099 32.3888 29.6087 32.6575C29.5088 32.9525 29.2962 33.1937 29.0175 33.3313C28.7875 33.4325 28.5287 33.4425 28.2925 33.3613C28.1513 33.3063 28.0175 33.2337 27.8937 33.1463L27.3625 32.81L25.1575 31.4313L24.3575 30.9425C24.1875 30.83 24.0087 30.7325 23.8225 30.6488C24.2412 31 24.6788 31.3288 25.1337 31.6325H25.1325L26.205 32.42L26.7587 32.8275C26.8537 32.8937 26.945 32.965 27.0312 33.0413C27.0812 33.0875 27.1162 33.1475 27.1337 33.2138C27.195 33.475 27.1487 33.7488 27.0075 33.9763C26.8413 34.2625 26.5662 34.4675 26.2437 34.545C26.0075 34.595 25.7625 34.5788 25.535 34.5C25.3013 34.4087 25.08 34.2887 24.8762 34.1438L24.2862 33.7813L22.6975 32.825C23.0125 32.5675 23.22 32.2025 23.2825 31.8C23.3125 31.41 23.185 31.0237 22.9287 30.7275C22.67 30.4288 22.305 30.2425 21.9125 30.2088C21.9262 30.0138 21.9012 29.8175 21.8387 29.6313C21.7087 29.195 21.41 28.8262 21.0087 28.6088C20.6375 28.405 20.1962 28.3688 19.795 28.5075C19.7425 28.2013 19.6137 27.9137 19.42 27.67C19.14 27.3388 18.7425 27.1275 18.3112 27.0813C18.0575 27.055 17.8025 27.0975 17.5712 27.2063C17.3063 27.3688 17.06 27.5613 16.8375 27.7788L15.9353 28.5375L14.4466 26.7963L13.9516 26.2088C13.8378 26.0613 13.7128 25.9225 13.5766 25.795C13.4303 25.6688 13.2678 25.565 13.0916 25.4863L16.9687 17.5513C17.305 17.645 17.6553 17.6775 18.0028 17.6475C18.3053 17.6025 18.6029 17.5362 18.8953 17.4475L20.9003 16.9763C21.2865 16.865 21.6816 16.7875 22.0816 16.745Z" fill="#E43F71"/>
<path d="M21.725 30.9191C21.8175 30.9178 21.91 30.9278 22 30.9466C22.4812 31.0753 22.7687 31.5691 22.6437 32.0516V32.0766C22.6088 32.1865 22.555 32.2891 22.485 32.3791C22.2513 32.6478 22.0012 32.9016 21.7362 33.1391L21.2325 33.6403C21.1275 33.7553 21.0112 33.8616 20.8875 33.9553C20.75 34.0478 20.5925 34.1028 20.4275 34.1191H20.2412C19.9975 34.0766 19.78 33.9428 19.6325 33.7428C19.485 33.5466 19.4225 33.3003 19.4587 33.0566V33.0316C19.49 32.8716 19.5638 32.7228 19.6737 32.6028C19.9312 32.3128 20.2338 32.0516 20.51 31.7766L20.9387 31.3478C21.03 31.2453 21.1325 31.1516 21.2425 31.0691C21.3862 30.9728 21.5537 30.9203 21.725 30.9191Z" fill="#E43F71"/>
<path d="M20.0875 29.1863C20.2887 29.1625 20.4925 29.1963 20.675 29.2838C20.905 29.4 21.0812 29.6013 21.1637 29.8463C21.2387 30.095 21.2087 30.3638 21.0825 30.59C20.9888 30.73 20.8762 30.855 20.7475 30.9638H20.7487L20.1862 31.5125L19.5462 32.1425C19.4063 32.2912 19.2562 32.43 19.0987 32.5588C18.9887 32.645 18.8625 32.7075 18.7275 32.7413C18.485 32.7762 18.2387 32.7163 18.0387 32.5738C17.8125 32.425 17.6512 32.195 17.5912 31.9313C17.5438 31.6838 17.5963 31.4287 17.7387 31.2213C17.8638 31.0663 18.0013 30.9225 18.15 30.7925L18.97 30.005L19.3987 29.5763C19.4825 29.485 19.575 29.4025 19.675 29.3288C19.8 29.2513 19.9413 29.2012 20.0875 29.1863Z" fill="#E43F71"/>
<path d="M18.0512 27.8066C18.2799 27.7916 18.5063 27.8538 18.695 27.9825C18.9074 28.1375 19.0537 28.3676 19.1025 28.6263C19.1525 28.89 19.0937 29.1641 18.9375 29.3828C18.8513 29.4878 18.7575 29.5866 18.6562 29.6766H18.6575L18.1575 30.1716L17.675 30.6503C17.5825 30.7503 17.4837 30.8429 17.3787 30.9278C17.2513 31.004 17.1062 31.0503 16.9575 31.0603H16.7925C16.5251 31.0265 16.28 30.894 16.1062 30.6878C15.9262 30.479 15.84 30.2063 15.8662 29.9325V29.9025C15.8863 29.7463 15.9475 29.5987 16.0425 29.4725C16.2013 29.2888 16.3741 29.1162 16.5578 28.9563L17.1812 28.3275C17.3099 28.1838 17.4538 28.0528 17.61 27.9403C17.7462 27.8641 17.8963 27.8178 18.0512 27.8066Z" fill="#E43F71"/>
<path d="M25.8891 16.7425C26.2416 16.7475 26.5916 16.805 26.9266 16.9138V16.915L28.9278 17.4313C29.3928 17.5863 29.8741 17.6925 30.3628 17.7463C30.6078 17.7475 30.8516 17.7137 31.0878 17.645C31.1353 17.7112 31.1741 17.7838 31.2028 17.86L31.4328 18.34L32.2666 20.0863L34.9291 25.6241L33.5216 26.5916L29.275 23.6316L27.9141 22.6753L26.4666 21.6753L25.3941 20.9116C25.1991 20.7741 25.0115 20.6225 24.8103 20.4975C24.7378 20.45 24.6553 20.4188 24.5703 20.4075C24.4428 20.3913 24.3153 20.4178 24.2053 20.4828C24.1266 20.5403 24.0541 20.6066 23.9903 20.6803H23.9916L23.6566 21.0088L22.4591 22.1713C22.2203 22.4025 21.985 22.64 21.725 22.855C21.4725 23.0737 21.1363 23.17 20.805 23.1188C20.4213 23.0549 20.0875 22.7025 19.8725 22.4113C20.3575 21.435 20.9188 20.48 21.4962 19.5563C21.6475 19.2825 21.8175 19.0187 22.005 18.7675C22.115 18.6338 22.2453 18.5175 22.3903 18.4238L22.3916 18.4225C22.764 18.1762 23.1841 17.9837 23.5791 17.7688L24.6816 17.1838C24.9078 17.0588 25.1416 16.9462 25.3803 16.845C25.544 16.7888 25.7153 16.7537 25.8891 16.7425Z" fill="#E43F71"/>
<path d="M34.9566 14.0466C35.004 14.1115 35.0403 14.1841 35.0628 14.2616L35.2366 14.6128L36.1403 16.4978L40 24.4438L36.5487 26.2713C36.5238 26.28 36.5387 26.2778 36.5025 26.2691L31.4953 15.93L34.9328 14.0466H34.9566Z" fill="#E43F71"/>
<path d="M16.5125 15.93L11.4612 26.2288C11.1925 26.1225 10.9337 25.995 10.685 25.8463H10.6862L9 24.9888C8.6675 24.8175 8.32123 24.6512 8 24.4588L13.04 14L16.5125 15.93Z" fill="#E43F71"/>
<path d="M23.1541 17.0238L23.1534 17.0234L23.1553 17.0225L23.1541 17.0238Z" fill="#E43F71"/>
</svg>
